<svg width="399" height="220" viewBox="0 0 399 220" fill="none" xmlns="http://www.w3.org/2000/svg">
<g filter="url(#filter0_d_101_317)">
<rect width="379" height="200" transform="translate(10 6)" fill="white"/>
<path d="M343.149 76V70.912H341.181V70.4H345.709V70.912H343.741V76H343.149ZM348.718 71.76C349.06 71.76 349.358 71.8267 349.614 71.96C349.876 72.088 350.078 72.2853 350.222 72.552C350.372 72.8187 350.446 73.1547 350.446 73.56V76H349.878V73.616C349.878 73.1733 349.766 72.84 349.542 72.616C349.324 72.3867 349.014 72.272 348.614 72.272C348.316 72.272 348.054 72.3333 347.83 72.456C347.612 72.5733 347.441 72.7467 347.318 72.976C347.201 73.2 347.142 73.472 347.142 73.792V76H346.574V70.064H347.142V72.952L347.03 72.736C347.164 72.432 347.377 72.1947 347.67 72.024C347.964 71.848 348.313 71.76 348.718 71.76ZM352.021 76V71.8H352.589V76H352.021ZM352.309 70.872C352.191 70.872 352.093 70.832 352.013 70.752C351.933 70.672 351.893 70.576 351.893 70.464C351.893 70.352 351.933 70.2587 352.013 70.184C352.093 70.104 352.191 70.064 352.309 70.064C352.426 70.064 352.525 70.1013 352.605 70.176C352.685 70.2507 352.725 70.344 352.725 70.456C352.725 70.5733 352.685 70.672 352.605 70.752C352.53 70.832 352.431 70.872 352.309 70.872ZM355.953 76.04C355.537 76.04 355.164 75.9493 354.833 75.768C354.508 75.5813 354.252 75.328 354.065 75.008C353.878 74.6827 353.785 74.312 353.785 73.896C353.785 73.4747 353.878 73.104 354.065 72.784C354.252 72.464 354.508 72.2133 354.833 72.032C355.164 71.8507 355.537 71.76 355.953 71.76C356.31 71.76 356.633 71.8293 356.921 71.968C357.209 72.1067 357.436 72.3147 357.601 72.592L357.177 72.88C357.033 72.6667 356.854 72.5093 356.641 72.408C356.428 72.3067 356.196 72.256 355.945 72.256C355.646 72.256 355.377 72.3253 355.137 72.464C354.897 72.5973 354.708 72.7867 354.569 73.032C354.43 73.2773 354.361 73.5653 354.361 73.896C354.361 74.2267 354.43 74.5147 354.569 74.76C354.708 75.0053 354.897 75.1973 355.137 75.336C355.377 75.4693 355.646 75.536 355.945 75.536C356.196 75.536 356.428 75.4853 356.641 75.384C356.854 75.2827 357.033 75.128 357.177 74.92L357.601 75.208C357.436 75.48 357.209 75.688 356.921 75.832C356.633 75.9707 356.31 76.04 355.953 76.04ZM359.142 74.912L359.158 74.184L361.774 71.8H362.47L360.622 73.568L360.302 73.84L359.142 74.912ZM358.694 76V70.064H359.262V76H358.694ZM361.95 76L360.198 73.816L360.566 73.376L362.646 76H361.95ZM365.621 71.76C365.962 71.76 366.261 71.8267 366.517 71.96C366.778 72.088 366.981 72.2853 367.125 72.552C367.274 72.8187 367.349 73.1547 367.349 73.56V76H366.781V73.616C366.781 73.1733 366.669 72.84 366.445 72.616C366.226 72.3867 365.917 72.272 365.517 72.272C365.218 72.272 364.957 72.3333 364.733 72.456C364.514 72.5733 364.343 72.7467 364.221 72.976C364.103 73.2 364.045 73.472 364.045 73.792V76H363.477V71.8H364.021V72.952L363.933 72.736C364.066 72.432 364.279 72.1947 364.573 72.024C364.866 71.848 365.215 71.76 365.621 71.76ZM370.707 76.04C370.269 76.04 369.885 75.9493 369.555 75.768C369.224 75.5813 368.965 75.328 368.779 75.008C368.592 74.6827 368.499 74.312 368.499 73.896C368.499 73.48 368.587 73.112 368.763 72.792C368.944 72.472 369.189 72.2213 369.499 72.04C369.813 71.8533 370.165 71.76 370.555 71.76C370.949 71.76 371.299 71.8507 371.603 72.032C371.912 72.208 372.155 72.4587 372.331 72.784C372.507 73.104 372.595 73.4747 372.595 73.896C372.595 73.9227 372.592 73.952 372.587 73.984C372.587 74.0107 372.587 74.04 372.587 74.072H368.931V73.648H372.283L372.059 73.816C372.059 73.512 371.992 73.2427 371.859 73.008C371.731 72.768 371.555 72.5813 371.331 72.448C371.107 72.3147 370.848 72.248 370.555 72.248C370.267 72.248 370.008 72.3147 369.779 72.448C369.549 72.5813 369.371 72.768 369.243 73.008C369.115 73.248 369.051 73.5227 369.051 73.832V73.92C369.051 74.24 369.12 74.5227 369.259 74.768C369.403 75.008 369.6 75.1973 369.851 75.336C370.107 75.4693 370.397 75.536 370.723 75.536C370.979 75.536 371.216 75.4907 371.435 75.4C371.659 75.3093 371.851 75.1707 372.011 74.984L372.331 75.352C372.144 75.576 371.909 75.7467 371.627 75.864C371.349 75.9813 371.043 76.04 370.707 76.04ZM374.919 76.04C374.572 76.04 374.244 75.992 373.935 75.896C373.626 75.7947 373.383 75.6693 373.207 75.52L373.463 75.072C373.634 75.2 373.852 75.312 374.119 75.408C374.386 75.4987 374.666 75.544 374.959 75.544C375.359 75.544 375.647 75.4827 375.823 75.36C375.999 75.232 376.087 75.064 376.087 74.856C376.087 74.7013 376.036 74.5813 375.935 74.496C375.839 74.4053 375.711 74.3387 375.551 74.296C375.391 74.248 375.212 74.208 375.015 74.176C374.818 74.144 374.62 74.1067 374.423 74.064C374.231 74.0213 374.055 73.96 373.895 73.88C373.735 73.7947 373.604 73.68 373.503 73.536C373.407 73.392 373.359 73.2 373.359 72.96C373.359 72.7307 373.423 72.5253 373.551 72.344C373.679 72.1627 373.866 72.0213 374.111 71.92C374.362 71.8133 374.666 71.76 375.023 71.76C375.295 71.76 375.567 71.7973 375.839 71.872C376.111 71.9413 376.335 72.0347 376.511 72.152L376.263 72.608C376.076 72.48 375.876 72.3893 375.663 72.336C375.45 72.2773 375.236 72.248 375.023 72.248C374.644 72.248 374.364 72.3147 374.183 72.448C374.007 72.576 373.919 72.7413 373.919 72.944C373.919 73.104 373.967 73.2293 374.063 73.32C374.164 73.4107 374.295 73.4827 374.455 73.536C374.62 73.584 374.799 73.624 374.991 73.656C375.188 73.688 375.383 73.728 375.575 73.776C375.772 73.8187 375.951 73.88 376.111 73.96C376.276 74.0347 376.407 74.144 376.503 74.288C376.604 74.4267 376.655 74.6107 376.655 74.84C376.655 75.0853 376.586 75.2987 376.447 75.48C376.314 75.656 376.116 75.7947 375.855 75.896C375.599 75.992 375.287 76.04 374.919 76.04ZM378.865 76.04C378.518 76.04 378.19 75.992 377.881 75.896C377.572 75.7947 377.329 75.6693 377.153 75.52L377.409 75.072C377.58 75.2 377.798 75.312 378.065 75.408C378.332 75.4987 378.612 75.544 378.905 75.544C379.305 75.544 379.593 75.4827 379.769 75.36C379.945 75.232 380.033 75.064 380.033 74.856C380.033 74.7013 379.982 74.5813 379.881 74.496C379.785 74.4053 379.657 74.3387 379.497 74.296C379.337 74.248 379.158 74.208 378.961 74.176C378.764 74.144 378.566 74.1067 378.369 74.064C378.177 74.0213 378.001 73.96 377.841 73.88C377.681 73.7947 377.55 73.68 377.449 73.536C377.353 73.392 377.305 73.2 377.305 72.96C377.305 72.7307 377.369 72.5253 377.497 72.344C377.625 72.1627 377.812 72.0213 378.057 71.92C378.308 71.8133 378.612 71.76 378.969 71.76C379.241 71.76 379.513 71.7973 379.785 71.872C380.057 71.9413 380.281 72.0347 380.457 72.152L380.209 72.608C380.022 72.48 379.822 72.3893 379.609 72.336C379.396 72.2773 379.182 72.248 378.969 72.248C378.59 72.248 378.31 72.3147 378.129 72.448C377.953 72.576 377.865 72.7413 377.865 72.944C377.865 73.104 377.913 73.2293 378.009 73.32C378.11 73.4107 378.241 73.4827 378.401 73.536C378.566 73.584 378.745 73.624 378.937 73.656C379.134 73.688 379.329 73.728 379.521 73.776C379.718 73.8187 379.897 73.88 380.057 73.96C380.222 74.0347 380.353 74.144 380.449 74.288C380.55 74.4267 380.601 74.6107 380.601 74.84C380.601 75.0853 380.532 75.2987 380.393 75.48C380.26 75.656 380.062 75.7947 379.801 75.896C379.545 75.992 379.233 76.04 378.865 76.04Z" fill="#008CFF"/>
<path d="M238.274 101V95.4H240.37C240.845 95.4 241.253 95.4773 241.594 95.632C241.935 95.7813 242.197 96 242.378 96.288C242.565 96.5707 242.658 96.9147 242.658 97.32C242.658 97.7147 242.565 98.056 242.378 98.344C242.197 98.6267 241.935 98.8453 241.594 99C241.253 99.1493 240.845 99.224 240.37 99.224H238.602L238.866 98.952V101H238.274ZM242.098 101L240.658 98.968H241.298L242.746 101H242.098ZM238.866 99L238.602 98.72H240.354C240.914 98.72 241.338 98.5973 241.626 98.352C241.919 98.1067 242.066 97.7627 242.066 97.32C242.066 96.872 241.919 96.5253 241.626 96.28C241.338 96.0347 240.914 95.912 240.354 95.912H238.602L238.866 95.632V99ZM244.031 101.04C243.914 101.04 243.812 100.997 243.727 100.912C243.647 100.827 243.607 100.723 243.607 100.6C243.607 100.472 243.647 100.368 243.727 100.288C243.812 100.208 243.914 100.168 244.031 100.168C244.148 100.168 244.247 100.208 244.327 100.288C244.412 100.368 244.455 100.472 244.455 100.6C244.455 100.723 244.412 100.827 244.327 100.912C244.247 100.997 244.148 101.04 244.031 101.04ZM246.358 98.112H249.318V98.624H246.358V98.112ZM246.422 101H245.83V95.4H249.67V95.912H246.422V101ZM250.791 101.04C250.673 101.04 250.572 100.997 250.487 100.912C250.407 100.827 250.367 100.723 250.367 100.6C250.367 100.472 250.407 100.368 250.487 100.288C250.572 100.208 250.673 100.168 250.791 100.168C250.908 100.168 251.007 100.208 251.087 100.288C251.172 100.368 251.215 100.472 251.215 100.6C251.215 100.723 251.172 100.827 251.087 100.912C251.007 100.997 250.908 101.04 250.791 101.04Z" fill="#008CFF"/>
<path d="M199.211 186V180.4H201.307C201.782 180.4 202.19 180.477 202.531 180.632C202.873 180.781 203.134 181 203.315 181.288C203.502 181.571 203.595 181.915 203.595 182.32C203.595 182.715 203.502 183.056 203.315 183.344C203.134 183.627 202.873 183.845 202.531 184C202.19 184.149 201.782 184.224 201.307 184.224H199.539L199.803 183.952V186H199.211ZM203.035 186L201.595 183.968H202.235L203.683 186H203.035ZM199.803 184L199.539 183.72H201.291C201.851 183.72 202.275 183.597 202.563 183.352C202.857 183.107 203.003 182.763 203.003 182.32C203.003 181.872 202.857 181.525 202.563 181.28C202.275 181.035 201.851 180.912 201.291 180.912H199.539L199.803 180.632V184ZM204.969 186.04C204.851 186.04 204.75 185.997 204.665 185.912C204.585 185.827 204.545 185.723 204.545 185.6C204.545 185.472 204.585 185.368 204.665 185.288C204.75 185.208 204.851 185.168 204.969 185.168C205.086 185.168 205.185 185.208 205.265 185.288C205.35 185.368 205.393 185.472 205.393 185.6C205.393 185.723 205.35 185.827 205.265 185.912C205.185 185.997 205.086 186.04 204.969 186.04ZM209.068 186.048C208.641 186.048 208.246 185.979 207.884 185.84C207.526 185.696 207.214 185.496 206.948 185.24C206.686 184.984 206.481 184.683 206.332 184.336C206.188 183.989 206.116 183.611 206.116 183.2C206.116 182.789 206.188 182.411 206.332 182.064C206.481 181.717 206.689 181.416 206.956 181.16C207.222 180.904 207.534 180.707 207.892 180.568C208.254 180.424 208.649 180.352 209.076 180.352C209.502 180.352 209.892 180.419 210.244 180.552C210.601 180.685 210.905 180.888 211.156 181.16L210.788 181.536C210.553 181.301 210.294 181.133 210.012 181.032C209.729 180.931 209.425 180.88 209.1 180.88C208.753 180.88 208.433 180.939 208.14 181.056C207.852 181.168 207.598 181.331 207.38 181.544C207.166 181.752 206.998 181.997 206.876 182.28C206.758 182.557 206.7 182.864 206.7 183.2C206.7 183.531 206.758 183.837 206.876 184.12C206.998 184.403 207.166 184.651 207.38 184.864C207.598 185.072 207.852 185.235 208.14 185.352C208.433 185.464 208.75 185.52 209.092 185.52C209.412 185.52 209.713 185.472 209.996 185.376C210.284 185.28 210.548 185.117 210.788 184.888L211.124 185.336C210.857 185.571 210.545 185.749 210.188 185.872C209.83 185.989 209.457 186.048 209.068 186.048ZM210.556 185.264V183.2H211.124V185.336L210.556 185.264ZM212.853 186.04C212.736 186.04 212.635 185.997 212.549 185.912C212.469 185.827 212.429 185.723 212.429 185.6C212.429 185.472 212.469 185.368 212.549 185.288C212.635 185.208 212.736 185.168 212.853 185.168C212.971 185.168 213.069 185.208 213.149 185.288C213.235 185.368 213.277 185.472 213.277 185.6C213.277 185.723 213.235 185.827 213.149 185.912C213.069 185.997 212.971 186.04 212.853 186.04Z" fill="#008CFF"/>
<path d="M197.38 61V55.4H199.796C200.42 55.4 200.903 55.5253 201.244 55.776C201.591 56.0267 201.764 56.3813 201.764 56.84C201.764 57.144 201.692 57.4 201.548 57.608C201.409 57.816 201.217 57.9733 200.972 58.08C200.732 58.1867 200.468 58.24 200.18 58.24L200.316 58.048C200.673 58.048 200.98 58.104 201.236 58.216C201.497 58.3227 201.7 58.4853 201.844 58.704C201.988 58.9173 202.06 59.184 202.06 59.504C202.06 59.9787 201.884 60.3467 201.532 60.608C201.185 60.8693 200.66 61 199.956 61H197.38ZM197.972 60.512H199.948C200.439 60.512 200.815 60.4293 201.076 60.264C201.337 60.0933 201.468 59.824 201.468 59.456C201.468 59.0933 201.337 58.8293 201.076 58.664C200.815 58.4933 200.439 58.408 199.948 58.408H197.908V57.92H199.756C200.204 57.92 200.551 57.8347 200.796 57.664C201.047 57.4933 201.172 57.24 201.172 56.904C201.172 56.5627 201.047 56.3093 200.796 56.144C200.551 55.9733 200.204 55.888 199.756 55.888H197.972V60.512ZM205.115 61.04C204.678 61.04 204.294 60.9493 203.963 60.768C203.633 60.5813 203.374 60.328 203.187 60.008C203.001 59.6827 202.907 59.312 202.907 58.896C202.907 58.48 202.995 58.112 203.171 57.792C203.353 57.472 203.598 57.2213 203.907 57.04C204.222 56.8533 204.574 56.76 204.963 56.76C205.358 56.76 205.707 56.8507 206.011 57.032C206.321 57.208 206.563 57.4587 206.739 57.784C206.915 58.104 207.003 58.4747 207.003 58.896C207.003 58.9227 207.001 58.952 206.995 58.984C206.995 59.0107 206.995 59.04 206.995 59.072H203.339V58.648H206.691L206.467 58.816C206.467 58.512 206.401 58.2427 206.267 58.008C206.139 57.768 205.963 57.5813 205.739 57.448C205.515 57.3147 205.257 57.248 204.963 57.248C204.675 57.248 204.417 57.3147 204.187 57.448C203.958 57.5813 203.779 57.768 203.651 58.008C203.523 58.248 203.459 58.5227 203.459 58.832V58.92C203.459 59.24 203.529 59.5227 203.667 59.768C203.811 60.008 204.009 60.1973 204.259 60.336C204.515 60.4693 204.806 60.536 205.131 60.536C205.387 60.536 205.625 60.4907 205.843 60.4C206.067 60.3093 206.259 60.1707 206.419 59.984L206.739 60.352C206.553 60.576 206.318 60.7467 206.035 60.864C205.758 60.9813 205.451 61.04 205.115 61.04ZM209.201 61L207.337 56.8H207.929L209.641 60.696H209.361L211.097 56.8H211.657L209.785 61H209.201ZM214.164 61.04C213.727 61.04 213.343 60.9493 213.012 60.768C212.681 60.5813 212.423 60.328 212.236 60.008C212.049 59.6827 211.956 59.312 211.956 58.896C211.956 58.48 212.044 58.112 212.22 57.792C212.401 57.472 212.647 57.2213 212.956 57.04C213.271 56.8533 213.623 56.76 214.012 56.76C214.407 56.76 214.756 56.8507 215.06 57.032C215.369 57.208 215.612 57.4587 215.788 57.784C215.964 58.104 216.052 58.4747 216.052 58.896C216.052 58.9227 216.049 58.952 216.044 58.984C216.044 59.0107 216.044 59.04 216.044 59.072H212.388V58.648H215.74L215.516 58.816C215.516 58.512 215.449 58.2427 215.316 58.008C215.188 57.768 215.012 57.5813 214.788 57.448C214.564 57.3147 214.305 57.248 214.012 57.248C213.724 57.248 213.465 57.3147 213.236 57.448C213.007 57.5813 212.828 57.768 212.7 58.008C212.572 58.248 212.508 58.5227 212.508 58.832V58.92C212.508 59.24 212.577 59.5227 212.716 59.768C212.86 60.008 213.057 60.1973 213.308 60.336C213.564 60.4693 213.855 60.536 214.18 60.536C214.436 60.536 214.673 60.4907 214.892 60.4C215.116 60.3093 215.308 60.1707 215.468 59.984L215.788 60.352C215.601 60.576 215.367 60.7467 215.084 60.864C214.807 60.9813 214.5 61.04 214.164 61.04ZM217.248 61V55.064H217.816V61H217.248ZM220.794 61L223.354 55.4H223.938L226.498 61H225.874L223.522 55.744H223.762L221.41 61H220.794ZM221.802 59.504L221.978 59.024H225.234L225.41 59.504H221.802ZM229.489 56.76C229.83 56.76 230.129 56.8267 230.385 56.96C230.646 57.088 230.849 57.2853 230.993 57.552C231.142 57.8187 231.217 58.1547 231.217 58.56V61H230.649V58.616C230.649 58.1733 230.537 57.84 230.313 57.616C230.094 57.3867 229.785 57.272 229.385 57.272C229.086 57.272 228.825 57.3333 228.601 57.456C228.382 57.5733 228.211 57.7467 228.089 57.976C227.971 58.2 227.913 58.472 227.913 58.792V61H227.345V56.8H227.889V57.952L227.801 57.736C227.934 57.432 228.147 57.1947 228.441 57.024C228.734 56.848 229.083 56.76 229.489 56.76ZM234.583 62.592C234.199 62.592 233.831 62.536 233.479 62.424C233.127 62.312 232.842 62.152 232.623 61.944L232.911 61.512C233.108 61.688 233.351 61.8267 233.639 61.928C233.932 62.0347 234.242 62.088 234.567 62.088C235.1 62.088 235.492 61.9627 235.743 61.712C235.994 61.4667 236.119 61.0827 236.119 60.56V59.512L236.199 58.792L236.143 58.072V56.8H236.687V60.488C236.687 61.2133 236.508 61.744 236.151 62.08C235.799 62.4213 235.276 62.592 234.583 62.592ZM234.479 60.84C234.079 60.84 233.719 60.7547 233.399 60.584C233.079 60.408 232.826 60.1653 232.639 59.856C232.458 59.5467 232.367 59.192 232.367 58.792C232.367 58.392 232.458 58.04 232.639 57.736C232.826 57.4267 233.079 57.1867 233.399 57.016C233.719 56.8453 234.079 56.76 234.479 56.76C234.852 56.76 235.188 56.8373 235.487 56.992C235.786 57.1467 236.023 57.376 236.199 57.68C236.375 57.984 236.463 58.3547 236.463 58.792C236.463 59.2293 236.375 59.6 236.199 59.904C236.023 60.208 235.786 60.44 235.487 60.6C235.188 60.76 234.852 60.84 234.479 60.84ZM234.535 60.336C234.844 60.336 235.119 60.272 235.359 60.144C235.599 60.0107 235.788 59.8293 235.927 59.6C236.066 59.3653 236.135 59.096 236.135 58.792C236.135 58.488 236.066 58.2213 235.927 57.992C235.788 57.7627 235.599 57.584 235.359 57.456C235.119 57.3227 234.844 57.256 234.535 57.256C234.231 57.256 233.956 57.3227 233.711 57.456C233.471 57.584 233.282 57.7627 233.143 57.992C233.01 58.2213 232.943 58.488 232.943 58.792C232.943 59.096 233.01 59.3653 233.143 59.6C233.282 59.8293 233.471 60.0107 233.711 60.144C233.956 60.272 234.231 60.336 234.535 60.336ZM238.307 61V55.064H238.875V61H238.307ZM242.28 61.04C241.843 61.04 241.459 60.9493 241.128 60.768C240.797 60.5813 240.539 60.328 240.352 60.008C240.165 59.6827 240.072 59.312 240.072 58.896C240.072 58.48 240.16 58.112 240.336 57.792C240.517 57.472 240.763 57.2213 241.072 57.04C241.387 56.8533 241.739 56.76 242.128 56.76C242.523 56.76 242.872 56.8507 243.176 57.032C243.485 57.208 243.728 57.4587 243.904 57.784C244.08 58.104 244.168 58.4747 244.168 58.896C244.168 58.9227 244.165 58.952 244.16 58.984C244.16 59.0107 244.16 59.04 244.16 59.072H240.504V58.648H243.856L243.632 58.816C243.632 58.512 243.565 58.2427 243.432 58.008C243.304 57.768 243.128 57.5813 242.904 57.448C242.68 57.3147 242.421 57.248 242.128 57.248C241.84 57.248 241.581 57.3147 241.352 57.448C241.123 57.5813 240.944 57.768 240.816 58.008C240.688 58.248 240.624 58.5227 240.624 58.832V58.92C240.624 59.24 240.693 59.5227 240.832 59.768C240.976 60.008 241.173 60.1973 241.424 60.336C241.68 60.4693 241.971 60.536 242.296 60.536C242.552 60.536 242.789 60.4907 243.008 60.4C243.232 60.3093 243.424 60.1707 243.584 59.984L243.904 60.352C243.717 60.576 243.483 60.7467 243.2 60.864C242.923 60.9813 242.616 61.04 242.28 61.04Z" fill="#008CFF"/>
<path d="M127 32H169.646C184.698 20.6806 226.441 4.83355 273 32" stroke="black"/>
<path d="M127 152H169.5C184.5 163 226.1 178.4 272.5 152" stroke="black"/>
<path d="M273 32H341.316" stroke="black"/>
<path d="M336 151L338.887 146L333.113 146L336 151ZM336 32L333.113 37L338.887 37L336 32ZM336.5 146.5L336.5 36.5L335.5 36.5L335.5 146.5L336.5 146.5Z" fill="black"/>
<path d="M286 105L288.887 100L283.113 100L286 105ZM286 91L283.113 96L288.887 96L286 91ZM286.5 100.5L286.5 95.5L285.5 95.5L285.5 100.5L286.5 100.5Z" fill="black"/>
<path d="M292.5 91L295.387 86L289.613 86L292.5 91ZM292.5 33.5L289.613 38.5L295.387 38.5L292.5 33.5ZM293 86.5L293 38L292 38L292 86.5L293 86.5Z" fill="black"/>
<path d="M293 151L295.887 146L290.113 146L293 151ZM293 105L290.113 110L295.887 110L293 105ZM293.5 146.5L293.5 109.5L292.5 109.5L292.5 146.5L293.5 146.5Z" fill="black"/>
<path d="M226 91H294.316" stroke="black"/>
<path d="M226 105H294.316" stroke="black"/>
<path d="M272.184 152H340.5" stroke="black"/>
<path d="M170 32L217 91.1683V198" stroke="black"/>
<path d="M170 153L217 106" stroke="black"/>
<path d="M208 79L213.769 79.2181L211.074 74.1126L208 79ZM236 79L232.759 74.2221L230.242 79.418L236 79ZM212.174 77.3591C219.995 74.0772 227.397 75.8006 231.77 77.5044L232.133 76.5726C227.639 74.8217 219.945 73.0137 211.787 76.437L212.174 77.3591Z" fill="black"/>
<path d="M207 120L212.769 119.782L210.074 124.887L207 120ZM235 120L231.759 124.778L229.242 119.582L235 120ZM211.174 121.641C218.995 124.923 226.397 123.199 230.77 121.496L231.133 122.427C226.639 124.178 218.945 125.986 210.787 122.563L211.174 121.641Z" fill="black"/>
<path d="M273 32L226 91.1683V198" stroke="black"/>
<path d="M273 153L226 106" stroke="black"/>
<path d="M28.316 30V20.2H32.6C33.664 20.2 34.5973 20.4053 35.4 20.816C36.2027 21.2267 36.828 21.796 37.276 22.524C37.724 23.252 37.948 24.1107 37.948 25.1C37.948 26.08 37.724 26.9387 37.276 27.676C36.828 28.404 36.2027 28.9733 35.4 29.384C34.5973 29.7947 33.664 30 32.6 30H28.316ZM30.136 28.46H32.516C33.2533 28.46 33.888 28.32 34.42 28.04C34.9613 27.76 35.3767 27.368 35.666 26.864C35.9647 26.36 36.114 25.772 36.114 25.1C36.114 24.4187 35.9647 23.8307 35.666 23.336C35.3767 22.832 34.9613 22.44 34.42 22.16C33.888 21.88 33.2533 21.74 32.516 21.74H30.136V28.46ZM43.1444 30.098C42.3791 30.098 41.6977 29.9347 41.1004 29.608C40.5031 29.272 40.0317 28.8147 39.6864 28.236C39.3411 27.6573 39.1684 26.9993 39.1684 26.262C39.1684 25.5153 39.3411 24.8573 39.6864 24.288C40.0317 23.7093 40.5031 23.2567 41.1004 22.93C41.6977 22.6033 42.3791 22.44 43.1444 22.44C43.9191 22.44 44.6051 22.6033 45.2024 22.93C45.8091 23.2567 46.2804 23.7047 46.6164 24.274C46.9617 24.8433 47.1344 25.506 47.1344 26.262C47.1344 26.9993 46.9617 27.6573 46.6164 28.236C46.2804 28.8147 45.8091 29.272 45.2024 29.608C44.6051 29.9347 43.9191 30.098 43.1444 30.098ZM43.1444 28.6C43.5737 28.6 43.9564 28.5067 44.2924 28.32C44.6284 28.1333 44.8897 27.8627 45.0764 27.508C45.2724 27.1533 45.3704 26.738 45.3704 26.262C45.3704 25.7767 45.2724 25.3613 45.0764 25.016C44.8897 24.6613 44.6284 24.3907 44.2924 24.204C43.9564 24.0173 43.5784 23.924 43.1584 23.924C42.7291 23.924 42.3464 24.0173 42.0104 24.204C41.6837 24.3907 41.4224 24.6613 41.2264 25.016C41.0304 25.3613 40.9324 25.7767 40.9324 26.262C40.9324 26.738 41.0304 27.1533 41.2264 27.508C41.4224 27.8627 41.6837 28.1333 42.0104 28.32C42.3464 28.5067 42.7244 28.6 43.1444 28.6ZM52.0418 30.098C51.4072 30.098 50.8472 29.9813 50.3618 29.748C49.8765 29.5053 49.4985 29.1413 49.2278 28.656C48.9572 28.1613 48.8218 27.5407 48.8218 26.794V22.524H50.5718V26.556C50.5718 27.228 50.7212 27.732 51.0198 28.068C51.3278 28.3947 51.7618 28.558 52.3218 28.558C52.7325 28.558 53.0872 28.474 53.3858 28.306C53.6938 28.138 53.9318 27.886 54.0998 27.55C54.2772 27.214 54.3658 26.7987 54.3658 26.304V22.524H56.1158V30H54.4498V27.984L54.7438 28.6C54.4918 29.0853 54.1232 29.4587 53.6378 29.72C53.1525 29.972 52.6205 30.098 52.0418 30.098ZM62.6211 30.098C61.9865 30.098 61.4218 29.958 60.9271 29.678C60.4325 29.398 60.0405 28.978 59.7511 28.418C59.4711 27.8487 59.3311 27.13 59.3311 26.262C59.3311 25.3847 59.4758 24.666 59.7651 24.106C60.0638 23.546 60.4605 23.1307 60.9551 22.86C61.4591 22.58 62.0145 22.44 62.6211 22.44C63.3585 22.44 64.0071 22.5987 64.5671 22.916C65.1365 23.2333 65.5845 23.6767 65.9111 24.246C66.2471 24.8153 66.4151 25.4873 66.4151 26.262C66.4151 27.0367 66.2471 27.7087 65.9111 28.278C65.5845 28.8473 65.1365 29.2953 64.5671 29.622C64.0071 29.9393 63.3585 30.098 62.6211 30.098ZM58.4771 30V19.612H60.2271V24.26L60.0871 26.248L60.1431 28.236V30H58.4771ZM62.4251 28.6C62.8451 28.6 63.2185 28.5067 63.5451 28.32C63.8811 28.1333 64.1471 27.8627 64.3431 27.508C64.5391 27.1533 64.6371 26.738 64.6371 26.262C64.6371 25.7767 64.5391 25.3613 64.3431 25.016C64.1471 24.6613 63.8811 24.3907 63.5451 24.204C63.2185 24.0173 62.8451 23.924 62.4251 23.924C62.0051 23.924 61.6271 24.0173 61.2911 24.204C60.9551 24.3907 60.6891 24.6613 60.4931 25.016C60.2971 25.3613 60.1991 25.7767 60.1991 26.262C60.1991 26.738 60.2971 27.1533 60.4931 27.508C60.6891 27.8627 60.9551 28.1333 61.2911 28.32C61.6271 28.5067 62.0051 28.6 62.4251 28.6ZM68.1448 30V19.612H69.8948V30H68.1448ZM75.7757 30.098C74.945 30.098 74.217 29.9347 73.5917 29.608C72.9757 29.272 72.495 28.8147 72.1497 28.236C71.8137 27.6573 71.6457 26.9993 71.6457 26.262C71.6457 25.5153 71.809 24.8573 72.1357 24.288C72.4717 23.7093 72.929 23.2567 73.5077 22.93C74.0957 22.6033 74.763 22.44 75.5097 22.44C76.2377 22.44 76.8863 22.5987 77.4557 22.916C78.025 23.2333 78.473 23.6813 78.7997 24.26C79.1263 24.8387 79.2897 25.52 79.2897 26.304C79.2897 26.3787 79.285 26.4627 79.2757 26.556C79.2757 26.6493 79.271 26.738 79.2617 26.822H73.0317V25.66H78.3377L77.6517 26.024C77.661 25.5947 77.5723 25.2167 77.3857 24.89C77.199 24.5633 76.9423 24.3067 76.6157 24.12C76.2983 23.9333 75.9297 23.84 75.5097 23.84C75.0803 23.84 74.7023 23.9333 74.3757 24.12C74.0583 24.3067 73.8063 24.568 73.6197 24.904C73.4423 25.2307 73.3537 25.618 73.3537 26.066V26.346C73.3537 26.794 73.4563 27.1907 73.6617 27.536C73.867 27.8813 74.1563 28.1473 74.5297 28.334C74.903 28.5207 75.3323 28.614 75.8177 28.614C76.2377 28.614 76.6157 28.5487 76.9517 28.418C77.2877 28.2873 77.5863 28.082 77.8477 27.802L78.7857 28.88C78.4497 29.272 78.025 29.5753 77.5117 29.79C77.0077 29.9953 76.429 30.098 75.7757 30.098ZM86.5618 19.612L85.7498 22.72L85.5258 21.67C85.8525 21.67 86.1231 21.7727 86.3378 21.978C86.5525 22.1833 86.6598 22.4587 86.6598 22.804C86.6598 23.1493 86.5525 23.4293 86.3378 23.644C86.1231 23.8493 85.8571 23.952 85.5398 23.952C85.2038 23.952 84.9285 23.8447 84.7138 23.63C84.4991 23.4153 84.3918 23.14 84.3918 22.804C84.3918 22.692 84.3965 22.5893 84.4058 22.496C84.4245 22.3933 84.4571 22.272 84.5038 22.132C84.5505 21.992 84.6158 21.8147 84.6998 21.6L85.4418 19.612H86.5618ZM91.7388 30L87.4548 20.2H89.4288L93.2508 29.062H92.1168L95.9808 20.2H97.8008L93.5308 30H91.7388ZM98.9039 23.854L99.7159 20.746L99.9539 21.796C99.6272 21.796 99.3519 21.6933 99.1279 21.488C98.9132 21.2827 98.8059 21.0073 98.8059 20.662C98.8059 20.3167 98.9132 20.0413 99.1279 19.836C99.3519 19.6213 99.6226 19.514 99.9399 19.514C100.267 19.514 100.537 19.6213 100.752 19.836C100.967 20.0507 101.074 20.326 101.074 20.662C101.074 20.7647 101.065 20.872 101.046 20.984C101.037 21.0867 101.009 21.208 100.962 21.348C100.925 21.4787 100.859 21.6513 100.766 21.866L100.038 23.854H98.9039Z" fill="#008CFF"/>
</g>
<defs>
<filter id="filter0_d_101_317" x="0" y="0" width="399" height="220" filterUnits="userSpaceOnUse" color-interpolation-filters="sRGB">
<feFlood flood-opacity="0" result="BackgroundImageFix"/>
<feColorMatrix in="SourceAlpha" type="matrix" values="0 0 0 0 0 0 0 0 0 0 0 0 0 0 0 0 0 0 127 0" result="hardAlpha"/>
<feOffset dy="4"/>
<feGaussianBlur stdDeviation="5"/>
<feComposite in2="hardAlpha" operator="out"/>
<feColorMatrix type="matrix" values="0 0 0 0 0 0 0 0 0 0 0 0 0 0 0 0 0 0 0.25 0"/>
<feBlend mode="normal" in2="BackgroundImageFix" result="effect1_dropShadow_101_317"/>
<feBlend mode="normal" in="SourceGraphic" in2="effect1_dropShadow_101_317" result="shape"/>
</filter>
</defs>
</svg>
