<svg width="399" height="220" viewBox="0 0 399 220" fill="none" xmlns="http://www.w3.org/2000/svg">
<g filter="url(#filter0_d_97_230)">
<rect width="379" height="200" transform="translate(10 6)" fill="white"/>
<path d="M29.982 24.708H34.868V26.248H29.982V24.708ZM30.136 30H28.316V20.2H35.47V21.726H30.136V30ZM37.3001 30V20.2H39.1201V30H37.3001ZM41.8408 30V20.2H43.6608V28.46H48.7848V30H41.8408ZM50.2916 30V20.2H52.1116V28.46H57.2356V30H50.2916ZM60.4225 24.274H65.2945V25.772H60.4225V24.274ZM60.5625 28.474H66.0925V30H58.7425V20.2H65.8965V21.726H60.5625V28.474ZM70.1794 30V21.74H66.9314V20.2H75.2474V21.74H71.9994V30H70.1794Z" fill="#008CFF"/>
<path d="M140 102V115.655L146 117.172L134 120.207L140 122.23V146" stroke="black"/>
<path d="M139.5 145.5H144.5L133 148L139.5 150.5V163" stroke="black"/>
<path d="M193 79L297 156" stroke="black"/>
<path d="M140 102H276.5" stroke="black"/>
<path d="M140 156H294" stroke="black"/>
<path d="M302 162V14" stroke="black"/>
<path d="M140 163H297.5" stroke="black"/>
<path d="M281 102L331 102" stroke="black"/>
<path d="M302.5 14.5H318.5L321.5 8L324.5 18L326.5 14.5H344V161.5H302" stroke="black"/>
<path d="M193.5 79C208.667 62.8333 251.9 31.3 301.5 34.5" stroke="black"/>
<path d="M277 102V66" stroke="black"/>
<path d="M277 69H301.5" stroke="black"/>
<path d="M306 80H333" stroke="black"/>
<path d="M328 102V80" stroke="black" stroke-width="2"/>
<path d="M284 71V66" stroke="black" stroke-width="2"/>
<path d="M294 71V66" stroke="black" stroke-width="2"/>
<path d="M277 101L302 80" stroke="black"/>
<path d="M175 163L172.113 158H177.887L175 163ZM175 102L177.887 107H172.113L175 102ZM174.5 158.5V106.5H175.5V158.5H174.5Z" fill="black"/>
<path d="M182.149 139V133.912H180.181V133.4H184.709V133.912H182.741V139H182.149ZM187.718 134.76C188.06 134.76 188.358 134.827 188.614 134.96C188.876 135.088 189.078 135.285 189.222 135.552C189.372 135.819 189.446 136.155 189.446 136.56V139H188.878V136.616C188.878 136.173 188.766 135.84 188.542 135.616C188.324 135.387 188.014 135.272 187.614 135.272C187.316 135.272 187.054 135.333 186.83 135.456C186.612 135.573 186.441 135.747 186.318 135.976C186.201 136.2 186.142 136.472 186.142 136.792V139H185.574V133.064H186.142V135.952L186.03 135.736C186.164 135.432 186.377 135.195 186.67 135.024C186.964 134.848 187.313 134.76 187.718 134.76ZM191.021 139V134.8H191.589V139H191.021ZM191.309 133.872C191.191 133.872 191.093 133.832 191.013 133.752C190.933 133.672 190.893 133.576 190.893 133.464C190.893 133.352 190.933 133.259 191.013 133.184C191.093 133.104 191.191 133.064 191.309 133.064C191.426 133.064 191.525 133.101 191.605 133.176C191.685 133.251 191.725 133.344 191.725 133.456C191.725 133.573 191.685 133.672 191.605 133.752C191.53 133.832 191.431 133.872 191.309 133.872ZM194.953 139.04C194.537 139.04 194.164 138.949 193.833 138.768C193.508 138.581 193.252 138.328 193.065 138.008C192.878 137.683 192.785 137.312 192.785 136.896C192.785 136.475 192.878 136.104 193.065 135.784C193.252 135.464 193.508 135.213 193.833 135.032C194.164 134.851 194.537 134.76 194.953 134.76C195.31 134.76 195.633 134.829 195.921 134.968C196.209 135.107 196.436 135.315 196.601 135.592L196.177 135.88C196.033 135.667 195.854 135.509 195.641 135.408C195.428 135.307 195.196 135.256 194.945 135.256C194.646 135.256 194.377 135.325 194.137 135.464C193.897 135.597 193.708 135.787 193.569 136.032C193.43 136.277 193.361 136.565 193.361 136.896C193.361 137.227 193.43 137.515 193.569 137.76C193.708 138.005 193.897 138.197 194.137 138.336C194.377 138.469 194.646 138.536 194.945 138.536C195.196 138.536 195.428 138.485 195.641 138.384C195.854 138.283 196.033 138.128 196.177 137.92L196.601 138.208C196.436 138.48 196.209 138.688 195.921 138.832C195.633 138.971 195.31 139.04 194.953 139.04ZM198.142 137.912L198.158 137.184L200.774 134.8H201.47L199.622 136.568L199.302 136.84L198.142 137.912ZM197.694 139V133.064H198.262V139H197.694ZM200.95 139L199.198 136.816L199.566 136.376L201.646 139H200.95ZM204.621 134.76C204.962 134.76 205.261 134.827 205.517 134.96C205.778 135.088 205.981 135.285 206.125 135.552C206.274 135.819 206.349 136.155 206.349 136.56V139H205.781V136.616C205.781 136.173 205.669 135.84 205.445 135.616C205.226 135.387 204.917 135.272 204.517 135.272C204.218 135.272 203.957 135.333 203.733 135.456C203.514 135.573 203.343 135.747 203.221 135.976C203.103 136.2 203.045 136.472 203.045 136.792V139H202.477V134.8H203.021V135.952L202.933 135.736C203.066 135.432 203.279 135.195 203.573 135.024C203.866 134.848 204.215 134.76 204.621 134.76ZM209.707 139.04C209.269 139.04 208.885 138.949 208.555 138.768C208.224 138.581 207.965 138.328 207.779 138.008C207.592 137.683 207.499 137.312 207.499 136.896C207.499 136.48 207.587 136.112 207.763 135.792C207.944 135.472 208.189 135.221 208.499 135.04C208.813 134.853 209.165 134.76 209.555 134.76C209.949 134.76 210.299 134.851 210.603 135.032C210.912 135.208 211.155 135.459 211.331 135.784C211.507 136.104 211.595 136.475 211.595 136.896C211.595 136.923 211.592 136.952 211.587 136.984C211.587 137.011 211.587 137.04 211.587 137.072H207.931V136.648H211.283L211.059 136.816C211.059 136.512 210.992 136.243 210.859 136.008C210.731 135.768 210.555 135.581 210.331 135.448C210.107 135.315 209.848 135.248 209.555 135.248C209.267 135.248 209.008 135.315 208.779 135.448C208.549 135.581 208.371 135.768 208.243 136.008C208.115 136.248 208.051 136.523 208.051 136.832V136.92C208.051 137.24 208.12 137.523 208.259 137.768C208.403 138.008 208.6 138.197 208.851 138.336C209.107 138.469 209.397 138.536 209.723 138.536C209.979 138.536 210.216 138.491 210.435 138.4C210.659 138.309 210.851 138.171 211.011 137.984L211.331 138.352C211.144 138.576 210.909 138.747 210.627 138.864C210.349 138.981 210.043 139.04 209.707 139.04ZM213.919 139.04C213.572 139.04 213.244 138.992 212.935 138.896C212.626 138.795 212.383 138.669 212.207 138.52L212.463 138.072C212.634 138.2 212.852 138.312 213.119 138.408C213.386 138.499 213.666 138.544 213.959 138.544C214.359 138.544 214.647 138.483 214.823 138.36C214.999 138.232 215.087 138.064 215.087 137.856C215.087 137.701 215.036 137.581 214.935 137.496C214.839 137.405 214.711 137.339 214.551 137.296C214.391 137.248 214.212 137.208 214.015 137.176C213.818 137.144 213.62 137.107 213.423 137.064C213.231 137.021 213.055 136.96 212.895 136.88C212.735 136.795 212.604 136.68 212.503 136.536C212.407 136.392 212.359 136.2 212.359 135.96C212.359 135.731 212.423 135.525 212.551 135.344C212.679 135.163 212.866 135.021 213.111 134.92C213.362 134.813 213.666 134.76 214.023 134.76C214.295 134.76 214.567 134.797 214.839 134.872C215.111 134.941 215.335 135.035 215.511 135.152L215.263 135.608C215.076 135.48 214.876 135.389 214.663 135.336C214.45 135.277 214.236 135.248 214.023 135.248C213.644 135.248 213.364 135.315 213.183 135.448C213.007 135.576 212.919 135.741 212.919 135.944C212.919 136.104 212.967 136.229 213.063 136.32C213.164 136.411 213.295 136.483 213.455 136.536C213.62 136.584 213.799 136.624 213.991 136.656C214.188 136.688 214.383 136.728 214.575 136.776C214.772 136.819 214.951 136.88 215.111 136.96C215.276 137.035 215.407 137.144 215.503 137.288C215.604 137.427 215.655 137.611 215.655 137.84C215.655 138.085 215.586 138.299 215.447 138.48C215.314 138.656 215.116 138.795 214.855 138.896C214.599 138.992 214.287 139.04 213.919 139.04ZM217.865 139.04C217.518 139.04 217.19 138.992 216.881 138.896C216.572 138.795 216.329 138.669 216.153 138.52L216.409 138.072C216.58 138.2 216.798 138.312 217.065 138.408C217.332 138.499 217.612 138.544 217.905 138.544C218.305 138.544 218.593 138.483 218.769 138.36C218.945 138.232 219.033 138.064 219.033 137.856C219.033 137.701 218.982 137.581 218.881 137.496C218.785 137.405 218.657 137.339 218.497 137.296C218.337 137.248 218.158 137.208 217.961 137.176C217.764 137.144 217.566 137.107 217.369 137.064C217.177 137.021 217.001 136.96 216.841 136.88C216.681 136.795 216.55 136.68 216.449 136.536C216.353 136.392 216.305 136.2 216.305 135.96C216.305 135.731 216.369 135.525 216.497 135.344C216.625 135.163 216.812 135.021 217.057 134.92C217.308 134.813 217.612 134.76 217.969 134.76C218.241 134.76 218.513 134.797 218.785 134.872C219.057 134.941 219.281 135.035 219.457 135.152L219.209 135.608C219.022 135.48 218.822 135.389 218.609 135.336C218.396 135.277 218.182 135.248 217.969 135.248C217.59 135.248 217.31 135.315 217.129 135.448C216.953 135.576 216.865 135.741 216.865 135.944C216.865 136.104 216.913 136.229 217.009 136.32C217.11 136.411 217.241 136.483 217.401 136.536C217.566 136.584 217.745 136.624 217.937 136.656C218.134 136.688 218.329 136.728 218.521 136.776C218.718 136.819 218.897 136.88 219.057 136.96C219.222 137.035 219.353 137.144 219.449 137.288C219.55 137.427 219.601 137.611 219.601 137.84C219.601 138.085 219.532 138.299 219.393 138.48C219.26 138.656 219.062 138.795 218.801 138.896C218.545 138.992 218.233 139.04 217.865 139.04Z" fill="#008CFF"/>
<path d="M200.88 41V35.4H203.296C203.92 35.4 204.403 35.5253 204.744 35.776C205.091 36.0267 205.264 36.3813 205.264 36.84C205.264 37.144 205.192 37.4 205.048 37.608C204.909 37.816 204.717 37.9733 204.472 38.08C204.232 38.1867 203.968 38.24 203.68 38.24L203.816 38.048C204.173 38.048 204.48 38.104 204.736 38.216C204.997 38.3227 205.2 38.4853 205.344 38.704C205.488 38.9173 205.56 39.184 205.56 39.504C205.56 39.9787 205.384 40.3467 205.032 40.608C204.685 40.8693 204.16 41 203.456 41H200.88ZM201.472 40.512H203.448C203.939 40.512 204.315 40.4293 204.576 40.264C204.837 40.0933 204.968 39.824 204.968 39.456C204.968 39.0933 204.837 38.8293 204.576 38.664C204.315 38.4933 203.939 38.408 203.448 38.408H201.408V37.92H203.256C203.704 37.92 204.051 37.8347 204.296 37.664C204.547 37.4933 204.672 37.24 204.672 36.904C204.672 36.5627 204.547 36.3093 204.296 36.144C204.051 35.9733 203.704 35.888 203.256 35.888H201.472V40.512ZM208.615 41.04C208.178 41.04 207.794 40.9493 207.463 40.768C207.133 40.5813 206.874 40.328 206.687 40.008C206.501 39.6827 206.407 39.312 206.407 38.896C206.407 38.48 206.495 38.112 206.671 37.792C206.853 37.472 207.098 37.2213 207.407 37.04C207.722 36.8533 208.074 36.76 208.463 36.76C208.858 36.76 209.207 36.8507 209.511 37.032C209.821 37.208 210.063 37.4587 210.239 37.784C210.415 38.104 210.503 38.4747 210.503 38.896C210.503 38.9227 210.501 38.952 210.495 38.984C210.495 39.0107 210.495 39.04 210.495 39.072H206.839V38.648H210.191L209.967 38.816C209.967 38.512 209.901 38.2427 209.767 38.008C209.639 37.768 209.463 37.5813 209.239 37.448C209.015 37.3147 208.757 37.248 208.463 37.248C208.175 37.248 207.917 37.3147 207.687 37.448C207.458 37.5813 207.279 37.768 207.151 38.008C207.023 38.248 206.959 38.5227 206.959 38.832V38.92C206.959 39.24 207.029 39.5227 207.167 39.768C207.311 40.008 207.509 40.1973 207.759 40.336C208.015 40.4693 208.306 40.536 208.631 40.536C208.887 40.536 209.125 40.4907 209.343 40.4C209.567 40.3093 209.759 40.1707 209.919 39.984L210.239 40.352C210.053 40.576 209.818 40.7467 209.535 40.864C209.258 40.9813 208.951 41.04 208.615 41.04ZM212.701 41L210.837 36.8H211.429L213.141 40.696H212.861L214.597 36.8H215.157L213.285 41H212.701ZM217.664 41.04C217.227 41.04 216.843 40.9493 216.512 40.768C216.181 40.5813 215.923 40.328 215.736 40.008C215.549 39.6827 215.456 39.312 215.456 38.896C215.456 38.48 215.544 38.112 215.72 37.792C215.901 37.472 216.147 37.2213 216.456 37.04C216.771 36.8533 217.123 36.76 217.512 36.76C217.907 36.76 218.256 36.8507 218.56 37.032C218.869 37.208 219.112 37.4587 219.288 37.784C219.464 38.104 219.552 38.4747 219.552 38.896C219.552 38.9227 219.549 38.952 219.544 38.984C219.544 39.0107 219.544 39.04 219.544 39.072H215.888V38.648H219.24L219.016 38.816C219.016 38.512 218.949 38.2427 218.816 38.008C218.688 37.768 218.512 37.5813 218.288 37.448C218.064 37.3147 217.805 37.248 217.512 37.248C217.224 37.248 216.965 37.3147 216.736 37.448C216.507 37.5813 216.328 37.768 216.2 38.008C216.072 38.248 216.008 38.5227 216.008 38.832V38.92C216.008 39.24 216.077 39.5227 216.216 39.768C216.36 40.008 216.557 40.1973 216.808 40.336C217.064 40.4693 217.355 40.536 217.68 40.536C217.936 40.536 218.173 40.4907 218.392 40.4C218.616 40.3093 218.808 40.1707 218.968 39.984L219.288 40.352C219.101 40.576 218.867 40.7467 218.584 40.864C218.307 40.9813 218 41.04 217.664 41.04ZM220.748 41V35.064H221.316V41H220.748ZM224.294 41L226.854 35.4H227.438L229.998 41H229.374L227.022 35.744H227.262L224.91 41H224.294ZM225.302 39.504L225.478 39.024H228.734L228.91 39.504H225.302ZM232.989 36.76C233.33 36.76 233.629 36.8267 233.885 36.96C234.146 37.088 234.349 37.2853 234.493 37.552C234.642 37.8187 234.717 38.1547 234.717 38.56V41H234.149V38.616C234.149 38.1733 234.037 37.84 233.813 37.616C233.594 37.3867 233.285 37.272 232.885 37.272C232.586 37.272 232.325 37.3333 232.101 37.456C231.882 37.5733 231.711 37.7467 231.589 37.976C231.471 38.2 231.413 38.472 231.413 38.792V41H230.845V36.8H231.389V37.952L231.301 37.736C231.434 37.432 231.647 37.1947 231.941 37.024C232.234 36.848 232.583 36.76 232.989 36.76ZM238.083 42.592C237.699 42.592 237.331 42.536 236.979 42.424C236.627 42.312 236.342 42.152 236.123 41.944L236.411 41.512C236.608 41.688 236.851 41.8267 237.139 41.928C237.432 42.0347 237.742 42.088 238.067 42.088C238.6 42.088 238.992 41.9627 239.243 41.712C239.494 41.4667 239.619 41.0827 239.619 40.56V39.512L239.699 38.792L239.643 38.072V36.8H240.187V40.488C240.187 41.2133 240.008 41.744 239.651 42.08C239.299 42.4213 238.776 42.592 238.083 42.592ZM237.979 40.84C237.579 40.84 237.219 40.7547 236.899 40.584C236.579 40.408 236.326 40.1653 236.139 39.856C235.958 39.5467 235.867 39.192 235.867 38.792C235.867 38.392 235.958 38.04 236.139 37.736C236.326 37.4267 236.579 37.1867 236.899 37.016C237.219 36.8453 237.579 36.76 237.979 36.76C238.352 36.76 238.688 36.8373 238.987 36.992C239.286 37.1467 239.523 37.376 239.699 37.68C239.875 37.984 239.963 38.3547 239.963 38.792C239.963 39.2293 239.875 39.6 239.699 39.904C239.523 40.208 239.286 40.44 238.987 40.6C238.688 40.76 238.352 40.84 237.979 40.84ZM238.035 40.336C238.344 40.336 238.619 40.272 238.859 40.144C239.099 40.0107 239.288 39.8293 239.427 39.6C239.566 39.3653 239.635 39.096 239.635 38.792C239.635 38.488 239.566 38.2213 239.427 37.992C239.288 37.7627 239.099 37.584 238.859 37.456C238.619 37.3227 238.344 37.256 238.035 37.256C237.731 37.256 237.456 37.3227 237.211 37.456C236.971 37.584 236.782 37.7627 236.643 37.992C236.51 38.2213 236.443 38.488 236.443 38.792C236.443 39.096 236.51 39.3653 236.643 39.6C236.782 39.8293 236.971 40.0107 237.211 40.144C237.456 40.272 237.731 40.336 238.035 40.336ZM241.807 41V35.064H242.375V41H241.807ZM245.78 41.04C245.343 41.04 244.959 40.9493 244.628 40.768C244.297 40.5813 244.039 40.328 243.852 40.008C243.665 39.6827 243.572 39.312 243.572 38.896C243.572 38.48 243.66 38.112 243.836 37.792C244.017 37.472 244.263 37.2213 244.572 37.04C244.887 36.8533 245.239 36.76 245.628 36.76C246.023 36.76 246.372 36.8507 246.676 37.032C246.985 37.208 247.228 37.4587 247.404 37.784C247.58 38.104 247.668 38.4747 247.668 38.896C247.668 38.9227 247.665 38.952 247.66 38.984C247.66 39.0107 247.66 39.04 247.66 39.072H244.004V38.648H247.356L247.132 38.816C247.132 38.512 247.065 38.2427 246.932 38.008C246.804 37.768 246.628 37.5813 246.404 37.448C246.18 37.3147 245.921 37.248 245.628 37.248C245.34 37.248 245.081 37.3147 244.852 37.448C244.623 37.5813 244.444 37.768 244.316 38.008C244.188 38.248 244.124 38.5227 244.124 38.832V38.92C244.124 39.24 244.193 39.5227 244.332 39.768C244.476 40.008 244.673 40.1973 244.924 40.336C245.18 40.4693 245.471 40.536 245.796 40.536C246.052 40.536 246.289 40.4907 246.508 40.4C246.732 40.3093 246.924 40.1707 247.084 39.984L247.404 40.352C247.217 40.576 246.983 40.7467 246.7 40.864C246.423 40.9813 246.116 41.04 245.78 41.04Z" fill="#008CFF"/>
<path d="M246.822 57.112H249.782V57.624H246.822V57.112ZM246.886 60H246.294V54.4H250.134V54.912H246.886V60ZM251.397 60V54.4H251.989V60H251.397ZM253.851 60V54.4H254.443V59.488H257.579V60H253.851ZM258.602 60V54.4H259.194V59.488H262.33V60H258.602ZM263.88 56.904H266.84V57.408H263.88V56.904ZM263.944 59.488H267.312V60H263.352V54.4H267.192V54.912H263.944V59.488ZM269.832 60V54.912H267.864V54.4H272.392V54.912H270.424V60H269.832ZM277.056 60.048C276.64 60.048 276.24 59.9813 275.856 59.848C275.477 59.7093 275.184 59.5333 274.976 59.32L275.208 58.864C275.405 59.056 275.669 59.2187 276 59.352C276.336 59.48 276.688 59.544 277.056 59.544C277.408 59.544 277.693 59.5013 277.912 59.416C278.136 59.3253 278.298 59.2053 278.4 59.056C278.506 58.9067 278.56 58.7413 278.56 58.56C278.56 58.3413 278.496 58.1653 278.368 58.032C278.245 57.8987 278.082 57.7947 277.88 57.72C277.677 57.64 277.453 57.5707 277.208 57.512C276.962 57.4533 276.717 57.392 276.472 57.328C276.226 57.2587 276 57.168 275.792 57.056C275.589 56.944 275.424 56.7973 275.296 56.616C275.173 56.4293 275.112 56.1867 275.112 55.888C275.112 55.6107 275.184 55.3573 275.328 55.128C275.477 54.8933 275.704 54.7067 276.008 54.568C276.312 54.424 276.701 54.352 277.176 54.352C277.49 54.352 277.802 54.3973 278.112 54.488C278.421 54.5733 278.688 54.6933 278.912 54.848L278.712 55.32C278.472 55.16 278.216 55.0427 277.944 54.968C277.677 54.8933 277.418 54.856 277.168 54.856C276.832 54.856 276.554 54.9013 276.336 54.992C276.117 55.0827 275.954 55.2053 275.848 55.36C275.746 55.5093 275.696 55.68 275.696 55.872C275.696 56.0907 275.757 56.2667 275.88 56.4C276.008 56.5333 276.173 56.6373 276.376 56.712C276.584 56.7867 276.81 56.8533 277.056 56.912C277.301 56.9707 277.544 57.0347 277.784 57.104C278.029 57.1733 278.253 57.264 278.456 57.376C278.664 57.4827 278.829 57.6267 278.952 57.808C279.08 57.9893 279.144 58.2267 279.144 58.52C279.144 58.792 279.069 59.0453 278.92 59.28C278.77 59.5093 278.541 59.696 278.232 59.84C277.928 59.9787 277.536 60.048 277.056 60.048ZM280.473 60V54.4H281.065V60H280.473ZM282.375 60V59.592L286.263 54.688L286.327 54.912H282.431V54.4H286.871V54.808L282.991 59.712L282.919 59.488H286.967V60H282.375ZM288.706 56.904H291.666V57.408H288.706V56.904ZM288.77 59.488H292.138V60H288.178V54.4H292.018V54.912H288.77V59.488Z" fill="#008CFF"/>
<path d="M307 182L312 184.887V179.113L307 182ZM311.5 182.5H325V181.5H311.5V182.5Z" fill="black"/>
<path d="M296 182L291 179.113V184.887L296 182ZM291.5 181.5H279V182.5H291.5V181.5Z" fill="black"/>
<path d="M275.711 193V187.4H277.807C278.282 187.4 278.69 187.477 279.031 187.632C279.373 187.781 279.634 188 279.815 188.288C280.002 188.571 280.095 188.915 280.095 189.32C280.095 189.715 280.002 190.056 279.815 190.344C279.634 190.627 279.373 190.845 279.031 191C278.69 191.149 278.282 191.224 277.807 191.224H276.039L276.303 190.952V193H275.711ZM279.535 193L278.095 190.968H278.735L280.183 193H279.535ZM276.303 191L276.039 190.72H277.791C278.351 190.72 278.775 190.597 279.063 190.352C279.357 190.107 279.503 189.763 279.503 189.32C279.503 188.872 279.357 188.525 279.063 188.28C278.775 188.035 278.351 187.912 277.791 187.912H276.039L276.303 187.632V191ZM281.469 193.04C281.351 193.04 281.25 192.997 281.165 192.912C281.085 192.827 281.045 192.723 281.045 192.6C281.045 192.472 281.085 192.368 281.165 192.288C281.25 192.208 281.351 192.168 281.469 192.168C281.586 192.168 281.685 192.208 281.765 192.288C281.85 192.368 281.893 192.472 281.893 192.6C281.893 192.723 281.85 192.827 281.765 192.912C281.685 192.997 281.586 193.04 281.469 193.04ZM285.568 193.048C285.141 193.048 284.746 192.979 284.384 192.84C284.026 192.696 283.714 192.496 283.448 192.24C283.186 191.984 282.981 191.683 282.832 191.336C282.688 190.989 282.616 190.611 282.616 190.2C282.616 189.789 282.688 189.411 282.832 189.064C282.981 188.717 283.189 188.416 283.456 188.16C283.722 187.904 284.034 187.707 284.392 187.568C284.754 187.424 285.149 187.352 285.576 187.352C286.002 187.352 286.392 187.419 286.744 187.552C287.101 187.685 287.405 187.888 287.656 188.16L287.288 188.536C287.053 188.301 286.794 188.133 286.512 188.032C286.229 187.931 285.925 187.88 285.6 187.88C285.253 187.88 284.933 187.939 284.64 188.056C284.352 188.168 284.098 188.331 283.88 188.544C283.666 188.752 283.498 188.997 283.376 189.28C283.258 189.557 283.2 189.864 283.2 190.2C283.2 190.531 283.258 190.837 283.376 191.12C283.498 191.403 283.666 191.651 283.88 191.864C284.098 192.072 284.352 192.235 284.64 192.352C284.933 192.464 285.25 192.52 285.592 192.52C285.912 192.52 286.213 192.472 286.496 192.376C286.784 192.28 287.048 192.117 287.288 191.888L287.624 192.336C287.357 192.571 287.045 192.749 286.688 192.872C286.33 192.989 285.957 193.048 285.568 193.048ZM287.056 192.264V190.2H287.624V192.336L287.056 192.264ZM289.353 193.04C289.236 193.04 289.135 192.997 289.049 192.912C288.969 192.827 288.929 192.723 288.929 192.6C288.929 192.472 288.969 192.368 289.049 192.288C289.135 192.208 289.236 192.168 289.353 192.168C289.471 192.168 289.569 192.208 289.649 192.288C289.735 192.368 289.777 192.472 289.777 192.6C289.777 192.723 289.735 192.827 289.649 192.912C289.569 192.997 289.471 193.04 289.353 193.04Z" fill="#008CFF"/>
</g>
<defs>
<filter id="filter0_d_97_230" x="0" y="0" width="399" height="220" filterUnits="userSpaceOnUse" color-interpolation-filters="sRGB">
<feFlood flood-opacity="0" result="BackgroundImageFix"/>
<feColorMatrix in="SourceAlpha" type="matrix" values="0 0 0 0 0 0 0 0 0 0 0 0 0 0 0 0 0 0 127 0" result="hardAlpha"/>
<feOffset dy="4"/>
<feGaussianBlur stdDeviation="5"/>
<feComposite in2="hardAlpha" operator="out"/>
<feColorMatrix type="matrix" values="0 0 0 0 0 0 0 0 0 0 0 0 0 0 0 0 0 0 0.25 0"/>
<feBlend mode="normal" in2="BackgroundImageFix" result="effect1_dropShadow_97_230"/>
<feBlend mode="normal" in="SourceGraphic" in2="effect1_dropShadow_97_230" result="shape"/>
</filter>
</defs>
</svg>
