<svg width="399" height="220" viewBox="0 0 399 220" fill="none" xmlns="http://www.w3.org/2000/svg">
<g filter="url(#filter0_d_97_210)">
<rect width="379" height="200" transform="translate(10 6)" fill="white"/>
<path d="M29.842 30.14C29.2167 30.14 28.638 30.0187 28.106 29.776C27.5833 29.5333 27.154 29.1833 26.818 28.726L27.854 27.48C28.1247 27.8533 28.4187 28.1333 28.736 28.32C29.0627 28.5067 29.4173 28.6 29.8 28.6C30.8173 28.6 31.326 27.998 31.326 26.794V21.726H27.84V20.2H33.146V26.696C33.146 27.8533 32.8613 28.7167 32.292 29.286C31.732 29.8553 30.9153 30.14 29.842 30.14ZM44.286 30.14C43.5206 30.14 42.816 30.0187 42.172 29.776C41.5373 29.524 40.982 29.174 40.506 28.726C40.03 28.2687 39.6613 27.732 39.4 27.116C39.1386 26.5 39.008 25.828 39.008 25.1C39.008 24.372 39.1386 23.7 39.4 23.084C39.6613 22.468 40.03 21.936 40.506 21.488C40.9913 21.0307 41.556 20.6807 42.2 20.438C42.844 20.186 43.5486 20.06 44.314 20.06C45.1446 20.06 45.8913 20.1953 46.554 20.466C47.226 20.7367 47.7906 21.1333 48.248 21.656L47.1 22.776C46.7173 22.3933 46.302 22.1133 45.854 21.936C45.4153 21.7493 44.93 21.656 44.398 21.656C43.8846 21.656 43.4086 21.74 42.97 21.908C42.5313 22.076 42.1533 22.314 41.836 22.622C41.5186 22.93 41.2713 23.294 41.094 23.714C40.926 24.134 40.842 24.596 40.842 25.1C40.842 25.5947 40.926 26.052 41.094 26.472C41.2713 26.892 41.5186 27.2607 41.836 27.578C42.1533 27.886 42.5266 28.124 42.956 28.292C43.3853 28.46 43.8613 28.544 44.384 28.544C44.8693 28.544 45.336 28.4693 45.784 28.32C46.2413 28.1613 46.6753 27.9 47.086 27.536L48.122 28.894C47.6086 29.3047 47.0113 29.6173 46.33 29.832C45.658 30.0373 44.9766 30.14 44.286 30.14ZM46.4 28.656V24.988H48.122V28.894L46.4 28.656ZM50.5924 30V20.2H54.6244C55.4924 20.2 56.2344 20.34 56.8504 20.62C57.4757 20.9 57.9564 21.3013 58.2924 21.824C58.6284 22.3467 58.7964 22.9673 58.7964 23.686C58.7964 24.4047 58.6284 25.0253 58.2924 25.548C57.9564 26.0613 57.4757 26.458 56.8504 26.738C56.2344 27.0087 55.4924 27.144 54.6244 27.144H51.6004L52.4124 26.318V30H50.5924ZM57.0044 30L54.5264 26.444H56.4724L58.9644 30H57.0044ZM52.4124 26.514L51.6004 25.646H54.5404C55.3431 25.646 55.9451 25.4733 56.3464 25.128C56.7571 24.7827 56.9624 24.302 56.9624 23.686C56.9624 23.0607 56.7571 22.58 56.3464 22.244C55.9451 21.908 55.3431 21.74 54.5404 21.74H51.6004L52.4124 20.844V26.514ZM65.4946 30.14C64.7293 30.14 64.0246 30.014 63.3806 29.762C62.7366 29.51 62.1766 29.16 61.7006 28.712C61.2246 28.2547 60.856 27.7227 60.5946 27.116C60.3333 26.5 60.2026 25.828 60.2026 25.1C60.2026 24.372 60.3333 23.7047 60.5946 23.098C60.856 22.482 61.2246 21.95 61.7006 21.502C62.1766 21.0447 62.7366 20.69 63.3806 20.438C64.0246 20.186 64.7246 20.06 65.4806 20.06C66.246 20.06 66.946 20.186 67.5806 20.438C68.2246 20.69 68.7846 21.0447 69.2606 21.502C69.7366 21.95 70.1053 22.482 70.3666 23.098C70.628 23.7047 70.7586 24.372 70.7586 25.1C70.7586 25.828 70.628 26.5 70.3666 27.116C70.1053 27.732 69.7366 28.264 69.2606 28.712C68.7846 29.16 68.2246 29.51 67.5806 29.762C66.946 30.014 66.2506 30.14 65.4946 30.14ZM65.4806 28.544C65.9753 28.544 66.4326 28.46 66.8526 28.292C67.2726 28.124 67.6366 27.886 67.9446 27.578C68.2526 27.2607 68.4906 26.8967 68.6586 26.486C68.836 26.066 68.9246 25.604 68.9246 25.1C68.9246 24.596 68.836 24.1387 68.6586 23.728C68.4906 23.308 68.2526 22.944 67.9446 22.636C67.6366 22.3187 67.2726 22.076 66.8526 21.908C66.4326 21.74 65.9753 21.656 65.4806 21.656C64.986 21.656 64.5286 21.74 64.1086 21.908C63.698 22.076 63.334 22.3187 63.0166 22.636C62.7086 22.944 62.466 23.308 62.2886 23.728C62.1206 24.1387 62.0366 24.596 62.0366 25.1C62.0366 25.5947 62.1206 26.052 62.2886 26.472C62.466 26.892 62.7086 27.2607 63.0166 27.578C63.3246 27.886 63.6886 28.124 64.1086 28.292C64.5286 28.46 64.986 28.544 65.4806 28.544ZM77.3498 30.14C76.5845 30.14 75.8798 30.014 75.2358 29.762C74.5918 29.51 74.0318 29.16 73.5558 28.712C73.0798 28.2547 72.7111 27.7227 72.4498 27.116C72.1885 26.5 72.0578 25.828 72.0578 25.1C72.0578 24.372 72.1885 23.7047 72.4498 23.098C72.7111 22.482 73.0798 21.95 73.5558 21.502C74.0318 21.0447 74.5918 20.69 75.2358 20.438C75.8798 20.186 76.5798 20.06 77.3358 20.06C78.1011 20.06 78.8011 20.186 79.4358 20.438C80.0798 20.69 80.6398 21.0447 81.1158 21.502C81.5918 21.95 81.9605 22.482 82.2218 23.098C82.4831 23.7047 82.6138 24.372 82.6138 25.1C82.6138 25.828 82.4831 26.5 82.2218 27.116C81.9605 27.732 81.5918 28.264 81.1158 28.712C80.6398 29.16 80.0798 29.51 79.4358 29.762C78.8011 30.014 78.1058 30.14 77.3498 30.14ZM77.3358 28.544C77.8305 28.544 78.2878 28.46 78.7078 28.292C79.1278 28.124 79.4918 27.886 79.7998 27.578C80.1078 27.2607 80.3458 26.8967 80.5138 26.486C80.6911 26.066 80.7798 25.604 80.7798 25.1C80.7798 24.596 80.6911 24.1387 80.5138 23.728C80.3458 23.308 80.1078 22.944 79.7998 22.636C79.4918 22.3187 79.1278 22.076 78.7078 21.908C78.2878 21.74 77.8305 21.656 77.3358 21.656C76.8411 21.656 76.3838 21.74 75.9638 21.908C75.5531 22.076 75.1891 22.3187 74.8718 22.636C74.5638 22.944 74.3211 23.308 74.1438 23.728C73.9758 24.1387 73.8918 24.596 73.8918 25.1C73.8918 25.5947 73.9758 26.052 74.1438 26.472C74.3211 26.892 74.5638 27.2607 74.8718 27.578C75.1798 27.886 75.5438 28.124 75.9638 28.292C76.3838 28.46 76.8411 28.544 77.3358 28.544ZM87.1965 30L82.9125 20.2H84.8865L88.7085 29.062H87.5745L91.4385 20.2H93.2585L88.9885 30H87.1965ZM96.0426 24.274H100.915V25.772H96.0426V24.274ZM96.1826 28.474H101.713V30H94.3626V20.2H101.517V21.726H96.1826V28.474Z" fill="#008CFF"/>
<path d="M264 37L320 37" stroke="black"/>
<path d="M106 40H152.927C168.937 24.074 206.479 10.3446 265 37.2541" stroke="black"/>
<path d="M168 82L173.716 81.1877L170.155 76.6436L168 82ZM244 82L241.384 76.8534L238.235 81.6926L244 82ZM171.829 79.6332C184.377 70.8478 210.599 61.9367 239.967 79.9721L240.49 79.12C210.704 60.8278 184.047 69.858 171.256 78.814L171.829 79.6332Z" fill="black"/>
<path d="M176 169C182.553 175.037 200.728 183.489 221 169" stroke="black"/>
<path d="M198 155L198 201" stroke="black"/>
<path d="M206 155L206 201" stroke="black"/>
<path d="M271 124.886L268.113 119.886H273.887L271 124.886ZM271 37L273.887 42H268.113L271 37ZM271 153.629L268.113 148.629H273.887L271 153.629ZM271 125.992L273.887 130.992H268.113L271 125.992ZM271 168L268.113 163H273.887L271 168ZM271 154.734L273.887 159.734H268.113L271 154.734ZM270.5 120.386V41.5H271.5V120.386H270.5ZM270.5 149.129V130.492H271.5V149.129H270.5ZM270.5 163.5V159.234H271.5V163.5H270.5Z" fill="black"/>
<path d="M310 165L307.113 160H312.887L310 165ZM310 38L312.887 43H307.113L310 38ZM309.5 160.5V42.5H310.5V160.5H309.5Z" fill="black"/>
<path d="M206 146L206 103" stroke="black"/>
<path d="M244 125H287" stroke="black"/>
<path d="M234 123L234 101" stroke="black"/>
<g filter="url(#filter1_d_97_210)">
<path d="M211.4 140L211.817 139.725L211.669 139.5H211.4V140ZM218 150L217.655 144.237L212.836 147.417L218 150ZM196 140.5H211.4V139.5H196V140.5ZM210.983 140.275L215.104 146.52L215.939 145.969L211.817 139.725L210.983 140.275Z" fill="black"/>
</g>
<path d="M207 116L212 118.887V113.113L207 116ZM232 116L227 113.113V118.887L232 116ZM211.5 116.5H227.5V115.5H211.5V116.5Z" fill="black"/>
<path d="M209 182L214 184.887V179.113L209 182ZM213.5 182.5H227V181.5H213.5V182.5Z" fill="black"/>
<path d="M198 182L193 179.113V184.887L198 182ZM193.5 181.5H181V182.5H193.5V181.5Z" fill="black"/>
<path d="M153 40L174.881 133.723C176.003 139.935 182.373 154 199 154" stroke="black"/>
<path d="M206 154H285" stroke="black"/>
<path d="M205.827 168H329M103 168H226.173" stroke="black"/>
<path d="M264 37L231.717 130.93C227.821 143.014 223.368 154 205 154" stroke="black"/>
<path d="M317.149 106V100.912H315.181V100.4H319.709V100.912H317.741V106H317.149ZM322.718 101.76C323.06 101.76 323.358 101.827 323.614 101.96C323.876 102.088 324.078 102.285 324.222 102.552C324.372 102.819 324.446 103.155 324.446 103.56V106H323.878V103.616C323.878 103.173 323.766 102.84 323.542 102.616C323.324 102.387 323.014 102.272 322.614 102.272C322.316 102.272 322.054 102.333 321.83 102.456C321.612 102.573 321.441 102.747 321.318 102.976C321.201 103.2 321.142 103.472 321.142 103.792V106H320.574V100.064H321.142V102.952L321.03 102.736C321.164 102.432 321.377 102.195 321.67 102.024C321.964 101.848 322.313 101.76 322.718 101.76ZM326.021 106V101.8H326.589V106H326.021ZM326.309 100.872C326.191 100.872 326.093 100.832 326.013 100.752C325.933 100.672 325.893 100.576 325.893 100.464C325.893 100.352 325.933 100.259 326.013 100.184C326.093 100.104 326.191 100.064 326.309 100.064C326.426 100.064 326.525 100.101 326.605 100.176C326.685 100.251 326.725 100.344 326.725 100.456C326.725 100.573 326.685 100.672 326.605 100.752C326.53 100.832 326.431 100.872 326.309 100.872ZM329.953 106.04C329.537 106.04 329.164 105.949 328.833 105.768C328.508 105.581 328.252 105.328 328.065 105.008C327.878 104.683 327.785 104.312 327.785 103.896C327.785 103.475 327.878 103.104 328.065 102.784C328.252 102.464 328.508 102.213 328.833 102.032C329.164 101.851 329.537 101.76 329.953 101.76C330.31 101.76 330.633 101.829 330.921 101.968C331.209 102.107 331.436 102.315 331.601 102.592L331.177 102.88C331.033 102.667 330.854 102.509 330.641 102.408C330.428 102.307 330.196 102.256 329.945 102.256C329.646 102.256 329.377 102.325 329.137 102.464C328.897 102.597 328.708 102.787 328.569 103.032C328.43 103.277 328.361 103.565 328.361 103.896C328.361 104.227 328.43 104.515 328.569 104.76C328.708 105.005 328.897 105.197 329.137 105.336C329.377 105.469 329.646 105.536 329.945 105.536C330.196 105.536 330.428 105.485 330.641 105.384C330.854 105.283 331.033 105.128 331.177 104.92L331.601 105.208C331.436 105.48 331.209 105.688 330.921 105.832C330.633 105.971 330.31 106.04 329.953 106.04ZM333.142 104.912L333.158 104.184L335.774 101.8H336.47L334.622 103.568L334.302 103.84L333.142 104.912ZM332.694 106V100.064H333.262V106H332.694ZM335.95 106L334.198 103.816L334.566 103.376L336.646 106H335.95ZM339.621 101.76C339.962 101.76 340.261 101.827 340.517 101.96C340.778 102.088 340.981 102.285 341.125 102.552C341.274 102.819 341.349 103.155 341.349 103.56V106H340.781V103.616C340.781 103.173 340.669 102.84 340.445 102.616C340.226 102.387 339.917 102.272 339.517 102.272C339.218 102.272 338.957 102.333 338.733 102.456C338.514 102.573 338.343 102.747 338.221 102.976C338.103 103.2 338.045 103.472 338.045 103.792V106H337.477V101.8H338.021V102.952L337.933 102.736C338.066 102.432 338.279 102.195 338.573 102.024C338.866 101.848 339.215 101.76 339.621 101.76ZM344.707 106.04C344.269 106.04 343.885 105.949 343.555 105.768C343.224 105.581 342.965 105.328 342.779 105.008C342.592 104.683 342.499 104.312 342.499 103.896C342.499 103.48 342.587 103.112 342.763 102.792C342.944 102.472 343.189 102.221 343.499 102.04C343.813 101.853 344.165 101.76 344.555 101.76C344.949 101.76 345.299 101.851 345.603 102.032C345.912 102.208 346.155 102.459 346.331 102.784C346.507 103.104 346.595 103.475 346.595 103.896C346.595 103.923 346.592 103.952 346.587 103.984C346.587 104.011 346.587 104.04 346.587 104.072H342.931V103.648H346.283L346.059 103.816C346.059 103.512 345.992 103.243 345.859 103.008C345.731 102.768 345.555 102.581 345.331 102.448C345.107 102.315 344.848 102.248 344.555 102.248C344.267 102.248 344.008 102.315 343.779 102.448C343.549 102.581 343.371 102.768 343.243 103.008C343.115 103.248 343.051 103.523 343.051 103.832V103.92C343.051 104.24 343.12 104.523 343.259 104.768C343.403 105.008 343.6 105.197 343.851 105.336C344.107 105.469 344.397 105.536 344.723 105.536C344.979 105.536 345.216 105.491 345.435 105.4C345.659 105.309 345.851 105.171 346.011 104.984L346.331 105.352C346.144 105.576 345.909 105.747 345.627 105.864C345.349 105.981 345.043 106.04 344.707 106.04ZM348.919 106.04C348.572 106.04 348.244 105.992 347.935 105.896C347.626 105.795 347.383 105.669 347.207 105.52L347.463 105.072C347.634 105.2 347.852 105.312 348.119 105.408C348.386 105.499 348.666 105.544 348.959 105.544C349.359 105.544 349.647 105.483 349.823 105.36C349.999 105.232 350.087 105.064 350.087 104.856C350.087 104.701 350.036 104.581 349.935 104.496C349.839 104.405 349.711 104.339 349.551 104.296C349.391 104.248 349.212 104.208 349.015 104.176C348.818 104.144 348.62 104.107 348.423 104.064C348.231 104.021 348.055 103.96 347.895 103.88C347.735 103.795 347.604 103.68 347.503 103.536C347.407 103.392 347.359 103.2 347.359 102.96C347.359 102.731 347.423 102.525 347.551 102.344C347.679 102.163 347.866 102.021 348.111 101.92C348.362 101.813 348.666 101.76 349.023 101.76C349.295 101.76 349.567 101.797 349.839 101.872C350.111 101.941 350.335 102.035 350.511 102.152L350.263 102.608C350.076 102.48 349.876 102.389 349.663 102.336C349.45 102.277 349.236 102.248 349.023 102.248C348.644 102.248 348.364 102.315 348.183 102.448C348.007 102.576 347.919 102.741 347.919 102.944C347.919 103.104 347.967 103.229 348.063 103.32C348.164 103.411 348.295 103.483 348.455 103.536C348.62 103.584 348.799 103.624 348.991 103.656C349.188 103.688 349.383 103.728 349.575 103.776C349.772 103.819 349.951 103.88 350.111 103.96C350.276 104.035 350.407 104.144 350.503 104.288C350.604 104.427 350.655 104.611 350.655 104.84C350.655 105.085 350.586 105.299 350.447 105.48C350.314 105.656 350.116 105.795 349.855 105.896C349.599 105.992 349.287 106.04 348.919 106.04ZM352.865 106.04C352.518 106.04 352.19 105.992 351.881 105.896C351.572 105.795 351.329 105.669 351.153 105.52L351.409 105.072C351.58 105.2 351.798 105.312 352.065 105.408C352.332 105.499 352.612 105.544 352.905 105.544C353.305 105.544 353.593 105.483 353.769 105.36C353.945 105.232 354.033 105.064 354.033 104.856C354.033 104.701 353.982 104.581 353.881 104.496C353.785 104.405 353.657 104.339 353.497 104.296C353.337 104.248 353.158 104.208 352.961 104.176C352.764 104.144 352.566 104.107 352.369 104.064C352.177 104.021 352.001 103.96 351.841 103.88C351.681 103.795 351.55 103.68 351.449 103.536C351.353 103.392 351.305 103.2 351.305 102.96C351.305 102.731 351.369 102.525 351.497 102.344C351.625 102.163 351.812 102.021 352.057 101.92C352.308 101.813 352.612 101.76 352.969 101.76C353.241 101.76 353.513 101.797 353.785 101.872C354.057 101.941 354.281 102.035 354.457 102.152L354.209 102.608C354.022 102.48 353.822 102.389 353.609 102.336C353.396 102.277 353.182 102.248 352.969 102.248C352.59 102.248 352.31 102.315 352.129 102.448C351.953 102.576 351.865 102.741 351.865 102.944C351.865 103.104 351.913 103.229 352.009 103.32C352.11 103.411 352.241 103.483 352.401 103.536C352.566 103.584 352.745 103.624 352.937 103.656C353.134 103.688 353.329 103.728 353.521 103.776C353.718 103.819 353.897 103.88 354.057 103.96C354.222 104.035 354.353 104.144 354.449 104.288C354.55 104.427 354.601 104.611 354.601 104.84C354.601 105.085 354.532 105.299 354.393 105.48C354.26 105.656 354.062 105.795 353.801 105.896C353.545 105.992 353.233 106.04 352.865 106.04Z" fill="#008CFF"/>
<path d="M235.274 161V155.4H237.37C237.845 155.4 238.253 155.477 238.594 155.632C238.935 155.781 239.197 156 239.378 156.288C239.565 156.571 239.658 156.915 239.658 157.32C239.658 157.715 239.565 158.056 239.378 158.344C239.197 158.627 238.935 158.845 238.594 159C238.253 159.149 237.845 159.224 237.37 159.224H235.602L235.866 158.952V161H235.274ZM239.098 161L237.658 158.968H238.298L239.746 161H239.098ZM235.866 159L235.602 158.72H237.354C237.914 158.72 238.338 158.597 238.626 158.352C238.919 158.107 239.066 157.763 239.066 157.32C239.066 156.872 238.919 156.525 238.626 156.28C238.338 156.035 237.914 155.912 237.354 155.912H235.602L235.866 155.632V159ZM241.031 161.04C240.914 161.04 240.812 160.997 240.727 160.912C240.647 160.827 240.607 160.723 240.607 160.6C240.607 160.472 240.647 160.368 240.727 160.288C240.812 160.208 240.914 160.168 241.031 160.168C241.148 160.168 241.247 160.208 241.327 160.288C241.412 160.368 241.455 160.472 241.455 160.6C241.455 160.723 241.412 160.827 241.327 160.912C241.247 160.997 241.148 161.04 241.031 161.04ZM243.358 158.112H246.318V158.624H243.358V158.112ZM243.422 161H242.83V155.4H246.67V155.912H243.422V161ZM247.791 161.04C247.673 161.04 247.572 160.997 247.487 160.912C247.407 160.827 247.367 160.723 247.367 160.6C247.367 160.472 247.407 160.368 247.487 160.288C247.572 160.208 247.673 160.168 247.791 160.168C247.908 160.168 248.007 160.208 248.087 160.288C248.172 160.368 248.215 160.472 248.215 160.6C248.215 160.723 248.172 160.827 248.087 160.912C248.007 160.997 247.908 161.04 247.791 161.04Z" fill="#008CFF"/>
<path d="M195.521 136V130.4H197.617C198.092 130.4 198.5 130.477 198.841 130.632C199.183 130.781 199.444 131 199.625 131.288C199.812 131.571 199.905 131.915 199.905 132.32C199.905 132.715 199.812 133.056 199.625 133.344C199.444 133.627 199.183 133.845 198.841 134C198.5 134.149 198.092 134.224 197.617 134.224H195.849L196.113 133.952V136H195.521ZM199.345 136L197.905 133.968H198.545L199.993 136H199.345ZM196.113 134L195.849 133.72H197.601C198.161 133.72 198.585 133.597 198.873 133.352C199.167 133.107 199.313 132.763 199.313 132.32C199.313 131.872 199.167 131.525 198.873 131.28C198.585 131.035 198.161 130.912 197.601 130.912H195.849L196.113 130.632V134Z" fill="#008CFF"/>
<path d="M177.711 193V187.4H179.807C180.282 187.4 180.69 187.477 181.031 187.632C181.373 187.781 181.634 188 181.815 188.288C182.002 188.571 182.095 188.915 182.095 189.32C182.095 189.715 182.002 190.056 181.815 190.344C181.634 190.627 181.373 190.845 181.031 191C180.69 191.149 180.282 191.224 179.807 191.224H178.039L178.303 190.952V193H177.711ZM181.535 193L180.095 190.968H180.735L182.183 193H181.535ZM178.303 191L178.039 190.72H179.791C180.351 190.72 180.775 190.597 181.063 190.352C181.357 190.107 181.503 189.763 181.503 189.32C181.503 188.872 181.357 188.525 181.063 188.28C180.775 188.035 180.351 187.912 179.791 187.912H178.039L178.303 187.632V191ZM183.469 193.04C183.351 193.04 183.25 192.997 183.165 192.912C183.085 192.827 183.045 192.723 183.045 192.6C183.045 192.472 183.085 192.368 183.165 192.288C183.25 192.208 183.351 192.168 183.469 192.168C183.586 192.168 183.685 192.208 183.765 192.288C183.85 192.368 183.893 192.472 183.893 192.6C183.893 192.723 183.85 192.827 183.765 192.912C183.685 192.997 183.586 193.04 183.469 193.04ZM187.568 193.048C187.141 193.048 186.746 192.979 186.384 192.84C186.026 192.696 185.714 192.496 185.448 192.24C185.186 191.984 184.981 191.683 184.832 191.336C184.688 190.989 184.616 190.611 184.616 190.2C184.616 189.789 184.688 189.411 184.832 189.064C184.981 188.717 185.189 188.416 185.456 188.16C185.722 187.904 186.034 187.707 186.392 187.568C186.754 187.424 187.149 187.352 187.576 187.352C188.002 187.352 188.392 187.419 188.744 187.552C189.101 187.685 189.405 187.888 189.656 188.16L189.288 188.536C189.053 188.301 188.794 188.133 188.512 188.032C188.229 187.931 187.925 187.88 187.6 187.88C187.253 187.88 186.933 187.939 186.64 188.056C186.352 188.168 186.098 188.331 185.88 188.544C185.666 188.752 185.498 188.997 185.376 189.28C185.258 189.557 185.2 189.864 185.2 190.2C185.2 190.531 185.258 190.837 185.376 191.12C185.498 191.403 185.666 191.651 185.88 191.864C186.098 192.072 186.352 192.235 186.64 192.352C186.933 192.464 187.25 192.52 187.592 192.52C187.912 192.52 188.213 192.472 188.496 192.376C188.784 192.28 189.048 192.117 189.288 191.888L189.624 192.336C189.357 192.571 189.045 192.749 188.688 192.872C188.33 192.989 187.957 193.048 187.568 193.048ZM189.056 192.264V190.2H189.624V192.336L189.056 192.264ZM191.353 193.04C191.236 193.04 191.135 192.997 191.049 192.912C190.969 192.827 190.929 192.723 190.929 192.6C190.929 192.472 190.969 192.368 191.049 192.288C191.135 192.208 191.236 192.168 191.353 192.168C191.471 192.168 191.569 192.208 191.649 192.288C191.735 192.368 191.777 192.472 191.777 192.6C191.777 192.723 191.735 192.827 191.649 192.912C191.569 192.997 191.471 193.04 191.353 193.04Z" fill="#008CFF"/>
<path d="M185.88 58V52.4H188.296C188.92 52.4 189.403 52.5253 189.744 52.776C190.091 53.0267 190.264 53.3813 190.264 53.84C190.264 54.144 190.192 54.4 190.048 54.608C189.909 54.816 189.717 54.9733 189.472 55.08C189.232 55.1867 188.968 55.24 188.68 55.24L188.816 55.048C189.173 55.048 189.48 55.104 189.736 55.216C189.997 55.3227 190.2 55.4853 190.344 55.704C190.488 55.9173 190.56 56.184 190.56 56.504C190.56 56.9787 190.384 57.3467 190.032 57.608C189.685 57.8693 189.16 58 188.456 58H185.88ZM186.472 57.512H188.448C188.939 57.512 189.315 57.4293 189.576 57.264C189.837 57.0933 189.968 56.824 189.968 56.456C189.968 56.0933 189.837 55.8293 189.576 55.664C189.315 55.4933 188.939 55.408 188.448 55.408H186.408V54.92H188.256C188.704 54.92 189.051 54.8347 189.296 54.664C189.547 54.4933 189.672 54.24 189.672 53.904C189.672 53.5627 189.547 53.3093 189.296 53.144C189.051 52.9733 188.704 52.888 188.256 52.888H186.472V57.512ZM193.615 58.04C193.178 58.04 192.794 57.9493 192.463 57.768C192.133 57.5813 191.874 57.328 191.687 57.008C191.501 56.6827 191.407 56.312 191.407 55.896C191.407 55.48 191.495 55.112 191.671 54.792C191.853 54.472 192.098 54.2213 192.407 54.04C192.722 53.8533 193.074 53.76 193.463 53.76C193.858 53.76 194.207 53.8507 194.511 54.032C194.821 54.208 195.063 54.4587 195.239 54.784C195.415 55.104 195.503 55.4747 195.503 55.896C195.503 55.9227 195.501 55.952 195.495 55.984C195.495 56.0107 195.495 56.04 195.495 56.072H191.839V55.648H195.191L194.967 55.816C194.967 55.512 194.901 55.2427 194.767 55.008C194.639 54.768 194.463 54.5813 194.239 54.448C194.015 54.3147 193.757 54.248 193.463 54.248C193.175 54.248 192.917 54.3147 192.687 54.448C192.458 54.5813 192.279 54.768 192.151 55.008C192.023 55.248 191.959 55.5227 191.959 55.832V55.92C191.959 56.24 192.029 56.5227 192.167 56.768C192.311 57.008 192.509 57.1973 192.759 57.336C193.015 57.4693 193.306 57.536 193.631 57.536C193.887 57.536 194.125 57.4907 194.343 57.4C194.567 57.3093 194.759 57.1707 194.919 56.984L195.239 57.352C195.053 57.576 194.818 57.7467 194.535 57.864C194.258 57.9813 193.951 58.04 193.615 58.04ZM197.701 58L195.837 53.8H196.429L198.141 57.696H197.861L199.597 53.8H200.157L198.285 58H197.701ZM202.664 58.04C202.227 58.04 201.843 57.9493 201.512 57.768C201.181 57.5813 200.923 57.328 200.736 57.008C200.549 56.6827 200.456 56.312 200.456 55.896C200.456 55.48 200.544 55.112 200.72 54.792C200.901 54.472 201.147 54.2213 201.456 54.04C201.771 53.8533 202.123 53.76 202.512 53.76C202.907 53.76 203.256 53.8507 203.56 54.032C203.869 54.208 204.112 54.4587 204.288 54.784C204.464 55.104 204.552 55.4747 204.552 55.896C204.552 55.9227 204.549 55.952 204.544 55.984C204.544 56.0107 204.544 56.04 204.544 56.072H200.888V55.648H204.24L204.016 55.816C204.016 55.512 203.949 55.2427 203.816 55.008C203.688 54.768 203.512 54.5813 203.288 54.448C203.064 54.3147 202.805 54.248 202.512 54.248C202.224 54.248 201.965 54.3147 201.736 54.448C201.507 54.5813 201.328 54.768 201.2 55.008C201.072 55.248 201.008 55.5227 201.008 55.832V55.92C201.008 56.24 201.077 56.5227 201.216 56.768C201.36 57.008 201.557 57.1973 201.808 57.336C202.064 57.4693 202.355 57.536 202.68 57.536C202.936 57.536 203.173 57.4907 203.392 57.4C203.616 57.3093 203.808 57.1707 203.968 56.984L204.288 57.352C204.101 57.576 203.867 57.7467 203.584 57.864C203.307 57.9813 203 58.04 202.664 58.04ZM205.748 58V52.064H206.316V58H205.748ZM209.294 58L211.854 52.4H212.438L214.998 58H214.374L212.022 52.744H212.262L209.91 58H209.294ZM210.302 56.504L210.478 56.024H213.734L213.91 56.504H210.302ZM217.989 53.76C218.33 53.76 218.629 53.8267 218.885 53.96C219.146 54.088 219.349 54.2853 219.493 54.552C219.642 54.8187 219.717 55.1547 219.717 55.56V58H219.149V55.616C219.149 55.1733 219.037 54.84 218.813 54.616C218.594 54.3867 218.285 54.272 217.885 54.272C217.586 54.272 217.325 54.3333 217.101 54.456C216.882 54.5733 216.711 54.7467 216.589 54.976C216.471 55.2 216.413 55.472 216.413 55.792V58H215.845V53.8H216.389V54.952L216.301 54.736C216.434 54.432 216.647 54.1947 216.941 54.024C217.234 53.848 217.583 53.76 217.989 53.76ZM223.083 59.592C222.699 59.592 222.331 59.536 221.979 59.424C221.627 59.312 221.342 59.152 221.123 58.944L221.411 58.512C221.608 58.688 221.851 58.8267 222.139 58.928C222.432 59.0347 222.742 59.088 223.067 59.088C223.6 59.088 223.992 58.9627 224.243 58.712C224.494 58.4667 224.619 58.0827 224.619 57.56V56.512L224.699 55.792L224.643 55.072V53.8H225.187V57.488C225.187 58.2133 225.008 58.744 224.651 59.08C224.299 59.4213 223.776 59.592 223.083 59.592ZM222.979 57.84C222.579 57.84 222.219 57.7547 221.899 57.584C221.579 57.408 221.326 57.1653 221.139 56.856C220.958 56.5467 220.867 56.192 220.867 55.792C220.867 55.392 220.958 55.04 221.139 54.736C221.326 54.4267 221.579 54.1867 221.899 54.016C222.219 53.8453 222.579 53.76 222.979 53.76C223.352 53.76 223.688 53.8373 223.987 53.992C224.286 54.1467 224.523 54.376 224.699 54.68C224.875 54.984 224.963 55.3547 224.963 55.792C224.963 56.2293 224.875 56.6 224.699 56.904C224.523 57.208 224.286 57.44 223.987 57.6C223.688 57.76 223.352 57.84 222.979 57.84ZM223.035 57.336C223.344 57.336 223.619 57.272 223.859 57.144C224.099 57.0107 224.288 56.8293 224.427 56.6C224.566 56.3653 224.635 56.096 224.635 55.792C224.635 55.488 224.566 55.2213 224.427 54.992C224.288 54.7627 224.099 54.584 223.859 54.456C223.619 54.3227 223.344 54.256 223.035 54.256C222.731 54.256 222.456 54.3227 222.211 54.456C221.971 54.584 221.782 54.7627 221.643 54.992C221.51 55.2213 221.443 55.488 221.443 55.792C221.443 56.096 221.51 56.3653 221.643 56.6C221.782 56.8293 221.971 57.0107 222.211 57.144C222.456 57.272 222.731 57.336 223.035 57.336ZM226.807 58V52.064H227.375V58H226.807ZM230.78 58.04C230.343 58.04 229.959 57.9493 229.628 57.768C229.297 57.5813 229.039 57.328 228.852 57.008C228.665 56.6827 228.572 56.312 228.572 55.896C228.572 55.48 228.66 55.112 228.836 54.792C229.017 54.472 229.263 54.2213 229.572 54.04C229.887 53.8533 230.239 53.76 230.628 53.76C231.023 53.76 231.372 53.8507 231.676 54.032C231.985 54.208 232.228 54.4587 232.404 54.784C232.58 55.104 232.668 55.4747 232.668 55.896C232.668 55.9227 232.665 55.952 232.66 55.984C232.66 56.0107 232.66 56.04 232.66 56.072H229.004V55.648H232.356L232.132 55.816C232.132 55.512 232.065 55.2427 231.932 55.008C231.804 54.768 231.628 54.5813 231.404 54.448C231.18 54.3147 230.921 54.248 230.628 54.248C230.34 54.248 230.081 54.3147 229.852 54.448C229.623 54.5813 229.444 54.768 229.316 55.008C229.188 55.248 229.124 55.5227 229.124 55.832V55.92C229.124 56.24 229.193 56.5227 229.332 56.768C229.476 57.008 229.673 57.1973 229.924 57.336C230.18 57.4693 230.471 57.536 230.796 57.536C231.052 57.536 231.289 57.4907 231.508 57.4C231.732 57.3093 231.924 57.1707 232.084 56.984L232.404 57.352C232.217 57.576 231.983 57.7467 231.7 57.864C231.423 57.9813 231.116 58.04 230.78 58.04Z" fill="#008CFF"/>
</g>
<defs>
<filter id="filter0_d_97_210" x="0" y="0" width="399" height="220" filterUnits="userSpaceOnUse" color-interpolation-filters="sRGB">
<feFlood flood-opacity="0" result="BackgroundImageFix"/>
<feColorMatrix in="SourceAlpha" type="matrix" values="0 0 0 0 0 0 0 0 0 0 0 0 0 0 0 0 0 0 127 0" result="hardAlpha"/>
<feOffset dy="4"/>
<feGaussianBlur stdDeviation="5"/>
<feComposite in2="hardAlpha" operator="out"/>
<feColorMatrix type="matrix" values="0 0 0 0 0 0 0 0 0 0 0 0 0 0 0 0 0 0 0.25 0"/>
<feBlend mode="normal" in2="BackgroundImageFix" result="effect1_dropShadow_97_210"/>
<feBlend mode="normal" in="SourceGraphic" in2="effect1_dropShadow_97_210" result="shape"/>
</filter>
<filter id="filter1_d_97_210" x="192" y="139.5" width="30" height="18.5" filterUnits="userSpaceOnUse" color-interpolation-filters="sRGB">
<feFlood flood-opacity="0" result="BackgroundImageFix"/>
<feColorMatrix in="SourceAlpha" type="matrix" values="0 0 0 0 0 0 0 0 0 0 0 0 0 0 0 0 0 0 127 0" result="hardAlpha"/>
<feOffset dy="4"/>
<feGaussianBlur stdDeviation="2"/>
<feComposite in2="hardAlpha" operator="out"/>
<feColorMatrix type="matrix" values="0 0 0 0 0 0 0 0 0 0 0 0 0 0 0 0 0 0 0.25 0"/>
<feBlend mode="normal" in2="BackgroundImageFix" result="effect1_dropShadow_97_210"/>
<feBlend mode="normal" in="SourceGraphic" in2="effect1_dropShadow_97_210" result="shape"/>
</filter>
</defs>
</svg>
