<svg width="399" height="220" viewBox="0 0 399 220" fill="none" xmlns="http://www.w3.org/2000/svg">
<g clip-path="url(#clip0_95_158)" filter="url(#filter0_d_95_158)">
<rect width="379" height="200" transform="translate(10 6)" fill="white"/>
<path d="M31.354 30.14C30.5887 30.14 29.856 30.0327 29.156 29.818C28.456 29.594 27.9007 29.3093 27.49 28.964L28.12 27.55C28.512 27.858 28.9973 28.1147 29.576 28.32C30.1547 28.5253 30.7473 28.628 31.354 28.628C31.8673 28.628 32.2827 28.572 32.6 28.46C32.9173 28.348 33.1507 28.1987 33.3 28.012C33.4493 27.816 33.524 27.5967 33.524 27.354C33.524 27.0553 33.4167 26.8173 33.202 26.64C32.9873 26.4533 32.7073 26.3087 32.362 26.206C32.026 26.094 31.648 25.9913 31.228 25.898C30.8173 25.8047 30.402 25.6973 29.982 25.576C29.5713 25.4453 29.1933 25.282 28.848 25.086C28.512 24.8807 28.2367 24.61 28.022 24.274C27.8073 23.938 27.7 23.5087 27.7 22.986C27.7 22.454 27.84 21.9687 28.12 21.53C28.4093 21.082 28.8433 20.7273 29.422 20.466C30.01 20.1953 30.752 20.06 31.648 20.06C32.236 20.06 32.8193 20.1347 33.398 20.284C33.9767 20.4333 34.4807 20.648 34.91 20.928L34.336 22.342C33.8973 22.0807 33.4447 21.8893 32.978 21.768C32.5113 21.6373 32.0633 21.572 31.634 21.572C31.13 21.572 30.7193 21.6327 30.402 21.754C30.094 21.8753 29.8653 22.034 29.716 22.23C29.576 22.426 29.506 22.65 29.506 22.902C29.506 23.2007 29.6087 23.4433 29.814 23.63C30.0287 23.8073 30.304 23.9473 30.64 24.05C30.9853 24.1527 31.368 24.2553 31.788 24.358C32.208 24.4513 32.6233 24.5587 33.034 24.68C33.454 24.8013 33.832 24.96 34.168 25.156C34.5133 25.352 34.7887 25.618 34.994 25.954C35.2087 26.29 35.316 26.7147 35.316 27.228C35.316 27.7507 35.1713 28.236 34.882 28.684C34.602 29.1227 34.168 29.4773 33.58 29.748C32.992 30.0093 32.25 30.14 31.354 30.14ZM37.0227 30V22.524H38.7727V30H37.0227ZM37.9047 21.292C37.578 21.292 37.3074 21.1893 37.0927 20.984C36.8874 20.7787 36.7847 20.5313 36.7847 20.242C36.7847 19.9433 36.8874 19.696 37.0927 19.5C37.3074 19.2947 37.578 19.192 37.9047 19.192C38.2314 19.192 38.4974 19.29 38.7027 19.486C38.9174 19.6727 39.0247 19.9107 39.0247 20.2C39.0247 20.508 38.922 20.7693 38.7167 20.984C38.5114 21.1893 38.2407 21.292 37.9047 21.292ZM45.3816 22.44C45.9789 22.44 46.5109 22.5567 46.9776 22.79C47.4536 23.0233 47.8269 23.3827 48.0976 23.868C48.3682 24.344 48.5036 24.96 48.5036 25.716V30H46.7536V25.94C46.7536 25.2773 46.5949 24.7827 46.2776 24.456C45.9696 24.1293 45.5356 23.966 44.9756 23.966C44.5649 23.966 44.2009 24.05 43.8836 24.218C43.5662 24.386 43.3189 24.638 43.1416 24.974C42.9736 25.3007 42.8896 25.716 42.8896 26.22V30H41.1396V22.524H42.8056V24.54L42.5116 23.924C42.7729 23.448 43.1509 23.084 43.6456 22.832C44.1496 22.5707 44.7282 22.44 45.3816 22.44ZM54.1952 32.814C53.5046 32.814 52.8279 32.7207 52.1652 32.534C51.5119 32.3567 50.9752 32.0953 50.5552 31.75L51.3392 30.434C51.6659 30.7047 52.0766 30.9193 52.5712 31.078C53.0752 31.246 53.5839 31.33 54.0972 31.33C54.9186 31.33 55.5206 31.1387 55.9032 30.756C56.2859 30.3827 56.4772 29.818 56.4772 29.062V27.732L56.6172 26.038L56.5612 24.344V22.524H58.2272V28.866C58.2272 30.2193 57.8819 31.2133 57.1912 31.848C56.5006 32.492 55.5019 32.814 54.1952 32.814ZM53.9712 29.664C53.2619 29.664 52.6179 29.5147 52.0392 29.216C51.4699 28.908 51.0172 28.4833 50.6812 27.942C50.3546 27.4007 50.1912 26.766 50.1912 26.038C50.1912 25.3193 50.3546 24.6893 50.6812 24.148C51.0172 23.6067 51.4699 23.1867 52.0392 22.888C52.6179 22.5893 53.2619 22.44 53.9712 22.44C54.6059 22.44 55.1752 22.566 55.6792 22.818C56.1832 23.07 56.5846 23.462 56.8832 23.994C57.1912 24.526 57.3452 25.2073 57.3452 26.038C57.3452 26.8687 57.1912 27.5547 56.8832 28.096C56.5846 28.628 56.1832 29.0247 55.6792 29.286C55.1752 29.538 54.6059 29.664 53.9712 29.664ZM54.2372 28.18C54.6759 28.18 55.0679 28.0913 55.4132 27.914C55.7586 27.7273 56.0246 27.4753 56.2112 27.158C56.4072 26.8313 56.5052 26.458 56.5052 26.038C56.5052 25.618 56.4072 25.2493 56.2112 24.932C56.0246 24.6053 55.7586 24.358 55.4132 24.19C55.0679 24.0127 54.6759 23.924 54.2372 23.924C53.7986 23.924 53.4019 24.0127 53.0472 24.19C52.7019 24.358 52.4312 24.6053 52.2352 24.932C52.0486 25.2493 51.9552 25.618 51.9552 26.038C51.9552 26.458 52.0486 26.8313 52.2352 27.158C52.4312 27.4753 52.7019 27.7273 53.0472 27.914C53.4019 28.0913 53.7986 28.18 54.2372 28.18ZM60.5979 30V19.612H62.3479V30H60.5979ZM68.2288 30.098C67.3981 30.098 66.6701 29.9347 66.0448 29.608C65.4288 29.272 64.9481 28.8147 64.6028 28.236C64.2668 27.6573 64.0988 26.9993 64.0988 26.262C64.0988 25.5153 64.2621 24.8573 64.5888 24.288C64.9248 23.7093 65.3821 23.2567 65.9608 22.93C66.5488 22.6033 67.2161 22.44 67.9628 22.44C68.6908 22.44 69.3395 22.5987 69.9088 22.916C70.4781 23.2333 70.9261 23.6813 71.2528 24.26C71.5795 24.8387 71.7428 25.52 71.7428 26.304C71.7428 26.3787 71.7381 26.4627 71.7288 26.556C71.7288 26.6493 71.7241 26.738 71.7148 26.822H65.4848V25.66H70.7908L70.1048 26.024C70.1141 25.5947 70.0255 25.2167 69.8388 24.89C69.6521 24.5633 69.3955 24.3067 69.0688 24.12C68.7515 23.9333 68.3828 23.84 67.9628 23.84C67.5335 23.84 67.1555 23.9333 66.8288 24.12C66.5115 24.3067 66.2595 24.568 66.0728 24.904C65.8955 25.2307 65.8068 25.618 65.8068 26.066V26.346C65.8068 26.794 65.9095 27.1907 66.1148 27.536C66.3201 27.8813 66.6095 28.1473 66.9828 28.334C67.3561 28.5207 67.7855 28.614 68.2708 28.614C68.6908 28.614 69.0688 28.5487 69.4048 28.418C69.7408 28.2873 70.0395 28.082 70.3008 27.802L71.2388 28.88C70.9028 29.272 70.4781 29.5753 69.9648 29.79C69.4608 29.9953 68.8821 30.098 68.2288 30.098ZM79.0149 19.612L78.2029 22.72L77.9789 21.67C78.3056 21.67 78.5763 21.7727 78.7909 21.978C79.0056 22.1833 79.1129 22.4587 79.1129 22.804C79.1129 23.1493 79.0056 23.4293 78.7909 23.644C78.5763 23.8493 78.3103 23.952 77.9929 23.952C77.6569 23.952 77.3816 23.8447 77.1669 23.63C76.9523 23.4153 76.8449 23.14 76.8449 22.804C76.8449 22.692 76.8496 22.5893 76.8589 22.496C76.8776 22.3933 76.9103 22.272 76.9569 22.132C77.0036 21.992 77.0689 21.8147 77.1529 21.6L77.8949 19.612H79.0149ZM84.192 30L79.908 20.2H81.882L85.704 29.062H84.57L88.434 20.2H90.254L85.984 30H84.192ZM91.357 23.854L92.169 20.746L92.407 21.796C92.0804 21.796 91.805 21.6933 91.581 21.488C91.3664 21.2827 91.259 21.0073 91.259 20.662C91.259 20.3167 91.3664 20.0413 91.581 19.836C91.805 19.6213 92.0757 19.514 92.393 19.514C92.7197 19.514 92.9904 19.6213 93.205 19.836C93.4197 20.0507 93.527 20.326 93.527 20.662C93.527 20.7647 93.5177 20.872 93.499 20.984C93.4897 21.0867 93.4617 21.208 93.415 21.348C93.3777 21.4787 93.3124 21.6513 93.219 21.866L92.491 23.854H91.357Z" fill="#008CFF"/>
<path d="M342.829 106.661V101.573H340.861V101.061H345.389V101.573H343.421V106.661H342.829ZM348.398 102.421C348.74 102.421 349.038 102.488 349.294 102.621C349.556 102.749 349.758 102.946 349.902 103.213C350.052 103.48 350.126 103.816 350.126 104.221V106.661H349.558V104.277C349.558 103.834 349.446 103.501 349.222 103.277C349.004 103.048 348.694 102.933 348.294 102.933C347.996 102.933 347.734 102.994 347.51 103.117C347.292 103.234 347.121 103.408 346.998 103.637C346.881 103.861 346.822 104.133 346.822 104.453V106.661H346.254V100.725H346.822V103.613L346.71 103.397C346.844 103.093 347.057 102.856 347.35 102.685C347.644 102.509 347.993 102.421 348.398 102.421ZM351.701 106.661V102.461H352.269V106.661H351.701ZM351.989 101.533C351.871 101.533 351.773 101.493 351.693 101.413C351.613 101.333 351.573 101.237 351.573 101.125C351.573 101.013 351.613 100.92 351.693 100.845C351.773 100.765 351.871 100.725 351.989 100.725C352.106 100.725 352.205 100.762 352.285 100.837C352.365 100.912 352.405 101.005 352.405 101.117C352.405 101.234 352.365 101.333 352.285 101.413C352.21 101.493 352.111 101.533 351.989 101.533ZM355.633 106.701C355.217 106.701 354.844 106.61 354.513 106.429C354.188 106.242 353.932 105.989 353.745 105.669C353.558 105.344 353.465 104.973 353.465 104.557C353.465 104.136 353.558 103.765 353.745 103.445C353.932 103.125 354.188 102.874 354.513 102.693C354.844 102.512 355.217 102.421 355.633 102.421C355.99 102.421 356.313 102.49 356.601 102.629C356.889 102.768 357.116 102.976 357.281 103.253L356.857 103.541C356.713 103.328 356.534 103.17 356.321 103.069C356.108 102.968 355.876 102.917 355.625 102.917C355.326 102.917 355.057 102.986 354.817 103.125C354.577 103.258 354.388 103.448 354.249 103.693C354.11 103.938 354.041 104.226 354.041 104.557C354.041 104.888 354.11 105.176 354.249 105.421C354.388 105.666 354.577 105.858 354.817 105.997C355.057 106.13 355.326 106.197 355.625 106.197C355.876 106.197 356.108 106.146 356.321 106.045C356.534 105.944 356.713 105.789 356.857 105.581L357.281 105.869C357.116 106.141 356.889 106.349 356.601 106.493C356.313 106.632 355.99 106.701 355.633 106.701ZM358.822 105.573L358.838 104.845L361.454 102.461H362.15L360.302 104.229L359.982 104.501L358.822 105.573ZM358.374 106.661V100.725H358.942V106.661H358.374ZM361.63 106.661L359.878 104.477L360.246 104.037L362.326 106.661H361.63ZM365.301 102.421C365.642 102.421 365.941 102.488 366.197 102.621C366.458 102.749 366.661 102.946 366.805 103.213C366.954 103.48 367.029 103.816 367.029 104.221V106.661H366.461V104.277C366.461 103.834 366.349 103.501 366.125 103.277C365.906 103.048 365.597 102.933 365.197 102.933C364.898 102.933 364.637 102.994 364.413 103.117C364.194 103.234 364.023 103.408 363.901 103.637C363.783 103.861 363.725 104.133 363.725 104.453V106.661H363.157V102.461H363.701V103.613L363.613 103.397C363.746 103.093 363.959 102.856 364.253 102.685C364.546 102.509 364.895 102.421 365.301 102.421ZM370.387 106.701C369.949 106.701 369.565 106.61 369.235 106.429C368.904 106.242 368.645 105.989 368.459 105.669C368.272 105.344 368.179 104.973 368.179 104.557C368.179 104.141 368.267 103.773 368.443 103.453C368.624 103.133 368.869 102.882 369.179 102.701C369.493 102.514 369.845 102.421 370.235 102.421C370.629 102.421 370.979 102.512 371.283 102.693C371.592 102.869 371.835 103.12 372.011 103.445C372.187 103.765 372.275 104.136 372.275 104.557C372.275 104.584 372.272 104.613 372.267 104.645C372.267 104.672 372.267 104.701 372.267 104.733H368.611V104.309H371.963L371.739 104.477C371.739 104.173 371.672 103.904 371.539 103.669C371.411 103.429 371.235 103.242 371.011 103.109C370.787 102.976 370.528 102.909 370.235 102.909C369.947 102.909 369.688 102.976 369.459 103.109C369.229 103.242 369.051 103.429 368.923 103.669C368.795 103.909 368.731 104.184 368.731 104.493V104.581C368.731 104.901 368.8 105.184 368.939 105.429C369.083 105.669 369.28 105.858 369.531 105.997C369.787 106.13 370.077 106.197 370.403 106.197C370.659 106.197 370.896 106.152 371.115 106.061C371.339 105.97 371.531 105.832 371.691 105.645L372.011 106.013C371.824 106.237 371.589 106.408 371.307 106.525C371.029 106.642 370.723 106.701 370.387 106.701ZM374.599 106.701C374.252 106.701 373.924 106.653 373.615 106.557C373.306 106.456 373.063 106.33 372.887 106.181L373.143 105.733C373.314 105.861 373.532 105.973 373.799 106.069C374.066 106.16 374.346 106.205 374.639 106.205C375.039 106.205 375.327 106.144 375.503 106.021C375.679 105.893 375.767 105.725 375.767 105.517C375.767 105.362 375.716 105.242 375.615 105.157C375.519 105.066 375.391 105 375.231 104.957C375.071 104.909 374.892 104.869 374.695 104.837C374.498 104.805 374.3 104.768 374.103 104.725C373.911 104.682 373.735 104.621 373.575 104.541C373.415 104.456 373.284 104.341 373.183 104.197C373.087 104.053 373.039 103.861 373.039 103.621C373.039 103.392 373.103 103.186 373.231 103.005C373.359 102.824 373.546 102.682 373.791 102.581C374.042 102.474 374.346 102.421 374.703 102.421C374.975 102.421 375.247 102.458 375.519 102.533C375.791 102.602 376.015 102.696 376.191 102.813L375.943 103.269C375.756 103.141 375.556 103.05 375.343 102.997C375.13 102.938 374.916 102.909 374.703 102.909C374.324 102.909 374.044 102.976 373.863 103.109C373.687 103.237 373.599 103.402 373.599 103.605C373.599 103.765 373.647 103.89 373.743 103.981C373.844 104.072 373.975 104.144 374.135 104.197C374.3 104.245 374.479 104.285 374.671 104.317C374.868 104.349 375.063 104.389 375.255 104.437C375.452 104.48 375.631 104.541 375.791 104.621C375.956 104.696 376.087 104.805 376.183 104.949C376.284 105.088 376.335 105.272 376.335 105.501C376.335 105.746 376.266 105.96 376.127 106.141C375.994 106.317 375.796 106.456 375.535 106.557C375.279 106.653 374.967 106.701 374.599 106.701ZM378.545 106.701C378.198 106.701 377.87 106.653 377.561 106.557C377.252 106.456 377.009 106.33 376.833 106.181L377.089 105.733C377.26 105.861 377.478 105.973 377.745 106.069C378.012 106.16 378.292 106.205 378.585 106.205C378.985 106.205 379.273 106.144 379.449 106.021C379.625 105.893 379.713 105.725 379.713 105.517C379.713 105.362 379.662 105.242 379.561 105.157C379.465 105.066 379.337 105 379.177 104.957C379.017 104.909 378.838 104.869 378.641 104.837C378.444 104.805 378.246 104.768 378.049 104.725C377.857 104.682 377.681 104.621 377.521 104.541C377.361 104.456 377.23 104.341 377.129 104.197C377.033 104.053 376.985 103.861 376.985 103.621C376.985 103.392 377.049 103.186 377.177 103.005C377.305 102.824 377.492 102.682 377.737 102.581C377.988 102.474 378.292 102.421 378.649 102.421C378.921 102.421 379.193 102.458 379.465 102.533C379.737 102.602 379.961 102.696 380.137 102.813L379.889 103.269C379.702 103.141 379.502 103.05 379.289 102.997C379.076 102.938 378.862 102.909 378.649 102.909C378.27 102.909 377.99 102.976 377.809 103.109C377.633 103.237 377.545 103.402 377.545 103.605C377.545 103.765 377.593 103.89 377.689 103.981C377.79 104.072 377.921 104.144 378.081 104.197C378.246 104.245 378.425 104.285 378.617 104.317C378.814 104.349 379.009 104.389 379.201 104.437C379.398 104.48 379.577 104.541 379.737 104.621C379.902 104.696 380.033 104.805 380.129 104.949C380.23 105.088 380.281 105.272 380.281 105.501C380.281 105.746 380.212 105.96 380.073 106.141C379.94 106.317 379.742 106.456 379.481 106.557C379.225 106.653 378.913 106.701 378.545 106.701Z" fill="#008CFF"/>
<path d="M236.143 144.15V138.55H238.239C238.714 138.55 239.122 138.628 239.463 138.782C239.804 138.932 240.066 139.15 240.247 139.438C240.434 139.721 240.527 140.065 240.527 140.47C240.527 140.865 240.434 141.206 240.247 141.494C240.066 141.777 239.804 141.996 239.463 142.15C239.122 142.3 238.714 142.374 238.239 142.374H236.471L236.735 142.102V144.15H236.143ZM239.967 144.15L238.527 142.118H239.167L240.615 144.15H239.967ZM236.735 142.15L236.471 141.87H238.223C238.783 141.87 239.207 141.748 239.495 141.502C239.788 141.257 239.935 140.913 239.935 140.47C239.935 140.022 239.788 139.676 239.495 139.43C239.207 139.185 238.783 139.062 238.223 139.062H236.471L236.735 138.782V142.15ZM241.9 144.19C241.783 144.19 241.682 144.148 241.596 144.062C241.516 143.977 241.476 143.873 241.476 143.75C241.476 143.622 241.516 143.518 241.596 143.438C241.682 143.358 241.783 143.318 241.9 143.318C242.018 143.318 242.116 143.358 242.196 143.438C242.282 143.518 242.324 143.622 242.324 143.75C242.324 143.873 242.282 143.977 242.196 144.062C242.116 144.148 242.018 144.19 241.9 144.19ZM244.228 141.262H247.188V141.774H244.228V141.262ZM244.292 144.15H243.7V138.55H247.54V139.062H244.292V144.15ZM248.66 144.19C248.543 144.19 248.441 144.148 248.356 144.062C248.276 143.977 248.236 143.873 248.236 143.75C248.236 143.622 248.276 143.518 248.356 143.438C248.441 143.358 248.543 143.318 248.66 143.318C248.777 143.318 248.876 143.358 248.956 143.438C249.041 143.518 249.084 143.622 249.084 143.75C249.084 143.873 249.041 143.977 248.956 144.062C248.876 144.148 248.777 144.19 248.66 144.19Z" fill="#008CFF"/>
<path d="M160.397 188.04V182.44H162.493C162.967 182.44 163.375 182.518 163.717 182.672C164.058 182.822 164.319 183.04 164.501 183.328C164.687 183.611 164.781 183.955 164.781 184.36C164.781 184.755 164.687 185.096 164.501 185.384C164.319 185.667 164.058 185.886 163.717 186.04C163.375 186.19 162.967 186.264 162.493 186.264H160.725L160.989 185.992V188.04H160.397ZM164.221 188.04L162.781 186.008H163.421L164.869 188.04H164.221ZM160.989 186.04L160.725 185.76H162.477C163.037 185.76 163.461 185.638 163.749 185.392C164.042 185.147 164.189 184.803 164.189 184.36C164.189 183.912 164.042 183.566 163.749 183.32C163.461 183.075 163.037 182.952 162.477 182.952H160.725L160.989 182.672V186.04ZM166.154 188.08C166.036 188.08 165.935 188.038 165.85 187.952C165.77 187.867 165.73 187.763 165.73 187.64C165.73 187.512 165.77 187.408 165.85 187.328C165.935 187.248 166.036 187.208 166.154 187.208C166.271 187.208 166.37 187.248 166.45 187.328C166.535 187.408 166.578 187.512 166.578 187.64C166.578 187.763 166.535 187.867 166.45 187.952C166.37 188.038 166.271 188.08 166.154 188.08ZM170.253 188.088C169.826 188.088 169.432 188.019 169.069 187.88C168.712 187.736 168.4 187.536 168.133 187.28C167.872 187.024 167.666 186.723 167.517 186.376C167.373 186.03 167.301 185.651 167.301 185.24C167.301 184.83 167.373 184.451 167.517 184.104C167.666 183.758 167.874 183.456 168.141 183.2C168.408 182.944 168.72 182.747 169.077 182.608C169.44 182.464 169.834 182.392 170.261 182.392C170.688 182.392 171.077 182.459 171.429 182.592C171.786 182.726 172.09 182.928 172.341 183.2L171.973 183.576C171.738 183.342 171.48 183.174 171.197 183.072C170.914 182.971 170.61 182.92 170.285 182.92C169.938 182.92 169.618 182.979 169.325 183.096C169.037 183.208 168.784 183.371 168.565 183.584C168.352 183.792 168.184 184.038 168.061 184.32C167.944 184.598 167.885 184.904 167.885 185.24C167.885 185.571 167.944 185.878 168.061 186.16C168.184 186.443 168.352 186.691 168.565 186.904C168.784 187.112 169.037 187.275 169.325 187.392C169.618 187.504 169.936 187.56 170.277 187.56C170.597 187.56 170.898 187.512 171.181 187.416C171.469 187.32 171.733 187.158 171.973 186.928L172.309 187.376C172.042 187.611 171.73 187.79 171.373 187.912C171.016 188.03 170.642 188.088 170.253 188.088ZM171.741 187.304V185.24H172.309V187.376L171.741 187.304ZM174.038 188.08C173.921 188.08 173.82 188.038 173.734 187.952C173.654 187.867 173.614 187.763 173.614 187.64C173.614 187.512 173.654 187.408 173.734 187.328C173.82 187.248 173.921 187.208 174.038 187.208C174.156 187.208 174.254 187.248 174.334 187.328C174.42 187.408 174.462 187.512 174.462 187.64C174.462 187.763 174.42 187.867 174.334 187.952C174.254 188.038 174.156 188.08 174.038 188.08Z" fill="#008CFF"/>
<path d="M172.04 103.918V98.3177H174.456C175.08 98.3177 175.563 98.4431 175.904 98.6937C176.251 98.9444 176.424 99.2991 176.424 99.7577C176.424 100.062 176.352 100.318 176.208 100.526C176.069 100.734 175.877 100.891 175.632 100.998C175.392 101.104 175.128 101.158 174.84 101.158L174.976 100.966C175.333 100.966 175.64 101.022 175.896 101.134C176.157 101.24 176.36 101.403 176.504 101.622C176.648 101.835 176.72 102.102 176.72 102.422C176.72 102.896 176.544 103.264 176.192 103.526C175.845 103.787 175.32 103.918 174.616 103.918H172.04ZM172.632 103.43H174.608C175.099 103.43 175.475 103.347 175.736 103.182C175.997 103.011 176.128 102.742 176.128 102.374C176.128 102.011 175.997 101.747 175.736 101.582C175.475 101.411 175.099 101.326 174.608 101.326H172.568V100.838H174.416C174.864 100.838 175.211 100.752 175.456 100.582C175.707 100.411 175.832 100.158 175.832 99.8217C175.832 99.4804 175.707 99.2271 175.456 99.0617C175.211 98.8911 174.864 98.8057 174.416 98.8057H172.632V103.43ZM179.775 103.958C179.338 103.958 178.954 103.867 178.623 103.686C178.292 103.499 178.034 103.246 177.847 102.926C177.66 102.6 177.567 102.23 177.567 101.814C177.567 101.398 177.655 101.03 177.831 100.71C178.012 100.39 178.258 100.139 178.567 99.9577C178.882 99.7711 179.234 99.6777 179.623 99.6777C180.018 99.6777 180.367 99.7684 180.671 99.9497C180.98 100.126 181.223 100.376 181.399 100.702C181.575 101.022 181.663 101.392 181.663 101.814C181.663 101.84 181.66 101.87 181.655 101.902C181.655 101.928 181.655 101.958 181.655 101.99H177.999V101.566H181.351L181.127 101.734C181.127 101.43 181.06 101.16 180.927 100.926C180.799 100.686 180.623 100.499 180.399 100.366C180.175 100.232 179.916 100.166 179.623 100.166C179.335 100.166 179.076 100.232 178.847 100.366C178.618 100.499 178.439 100.686 178.311 100.926C178.183 101.166 178.119 101.44 178.119 101.75V101.838C178.119 102.158 178.188 102.44 178.327 102.686C178.471 102.926 178.668 103.115 178.919 103.254C179.175 103.387 179.466 103.454 179.791 103.454C180.047 103.454 180.284 103.408 180.503 103.318C180.727 103.227 180.919 103.088 181.079 102.902L181.399 103.27C181.212 103.494 180.978 103.664 180.695 103.782C180.418 103.899 180.111 103.958 179.775 103.958ZM183.861 103.918L181.997 99.7177H182.589L184.301 103.614H184.021L185.757 99.7177H186.317L184.445 103.918H183.861ZM188.824 103.958C188.387 103.958 188.003 103.867 187.672 103.686C187.341 103.499 187.083 103.246 186.896 102.926C186.709 102.6 186.616 102.23 186.616 101.814C186.616 101.398 186.704 101.03 186.88 100.71C187.061 100.39 187.307 100.139 187.616 99.9577C187.931 99.7711 188.283 99.6777 188.672 99.6777C189.067 99.6777 189.416 99.7684 189.72 99.9497C190.029 100.126 190.272 100.376 190.448 100.702C190.624 101.022 190.712 101.392 190.712 101.814C190.712 101.84 190.709 101.87 190.704 101.902C190.704 101.928 190.704 101.958 190.704 101.99H187.048V101.566H190.4L190.176 101.734C190.176 101.43 190.109 101.16 189.976 100.926C189.848 100.686 189.672 100.499 189.448 100.366C189.224 100.232 188.965 100.166 188.672 100.166C188.384 100.166 188.125 100.232 187.896 100.366C187.667 100.499 187.488 100.686 187.36 100.926C187.232 101.166 187.168 101.44 187.168 101.75V101.838C187.168 102.158 187.237 102.44 187.376 102.686C187.52 102.926 187.717 103.115 187.968 103.254C188.224 103.387 188.515 103.454 188.84 103.454C189.096 103.454 189.333 103.408 189.552 103.318C189.776 103.227 189.968 103.088 190.128 102.902L190.448 103.27C190.261 103.494 190.027 103.664 189.744 103.782C189.467 103.899 189.16 103.958 188.824 103.958ZM191.908 103.918V97.9817H192.476V103.918H191.908ZM195.454 103.918L198.014 98.3177H198.598L201.158 103.918H200.534L198.182 98.6617H198.422L196.07 103.918H195.454ZM196.462 102.422L196.638 101.942H199.894L200.07 102.422H196.462ZM204.149 99.6777C204.49 99.6777 204.789 99.7444 205.045 99.8777C205.306 100.006 205.509 100.203 205.653 100.47C205.802 100.736 205.877 101.072 205.877 101.478V103.918H205.309V101.534C205.309 101.091 205.197 100.758 204.973 100.534C204.754 100.304 204.445 100.19 204.045 100.19C203.746 100.19 203.485 100.251 203.261 100.374C203.042 100.491 202.871 100.664 202.749 100.894C202.631 101.118 202.573 101.39 202.573 101.71V103.918H202.005V99.7177H202.549V100.87L202.461 100.654C202.594 100.35 202.807 100.112 203.101 99.9417C203.394 99.7657 203.743 99.6777 204.149 99.6777ZM209.243 105.51C208.859 105.51 208.491 105.454 208.139 105.342C207.787 105.23 207.501 105.07 207.283 104.862L207.571 104.43C207.768 104.606 208.011 104.744 208.299 104.846C208.592 104.952 208.901 105.006 209.227 105.006C209.76 105.006 210.152 104.88 210.403 104.63C210.653 104.384 210.779 104 210.779 103.478V102.43L210.859 101.71L210.803 100.99V99.7177H211.347V103.406C211.347 104.131 211.168 104.662 210.811 104.998C210.459 105.339 209.936 105.51 209.243 105.51ZM209.139 103.758C208.739 103.758 208.379 103.672 208.059 103.502C207.739 103.326 207.485 103.083 207.299 102.774C207.117 102.464 207.027 102.11 207.027 101.71C207.027 101.31 207.117 100.958 207.299 100.654C207.485 100.344 207.739 100.104 208.059 99.9337C208.379 99.7631 208.739 99.6777 209.139 99.6777C209.512 99.6777 209.848 99.7551 210.147 99.9097C210.445 100.064 210.683 100.294 210.859 100.598C211.035 100.902 211.123 101.272 211.123 101.71C211.123 102.147 211.035 102.518 210.859 102.822C210.683 103.126 210.445 103.358 210.147 103.518C209.848 103.678 209.512 103.758 209.139 103.758ZM209.195 103.254C209.504 103.254 209.779 103.19 210.019 103.062C210.259 102.928 210.448 102.747 210.587 102.518C210.725 102.283 210.795 102.014 210.795 101.71C210.795 101.406 210.725 101.139 210.587 100.91C210.448 100.68 210.259 100.502 210.019 100.374C209.779 100.24 209.504 100.174 209.195 100.174C208.891 100.174 208.616 100.24 208.371 100.374C208.131 100.502 207.941 100.68 207.803 100.91C207.669 101.139 207.603 101.406 207.603 101.71C207.603 102.014 207.669 102.283 207.803 102.518C207.941 102.747 208.131 102.928 208.371 103.062C208.616 103.19 208.891 103.254 209.195 103.254ZM212.967 103.918V97.9817H213.535V103.918H212.967ZM216.94 103.958C216.502 103.958 216.118 103.867 215.788 103.686C215.457 103.499 215.198 103.246 215.012 102.926C214.825 102.6 214.732 102.23 214.732 101.814C214.732 101.398 214.82 101.03 214.996 100.71C215.177 100.39 215.422 100.139 215.732 99.9577C216.046 99.7711 216.398 99.6777 216.788 99.6777C217.182 99.6777 217.532 99.7684 217.836 99.9497C218.145 100.126 218.388 100.376 218.564 100.702C218.74 101.022 218.828 101.392 218.828 101.814C218.828 101.84 218.825 101.87 218.82 101.902C218.82 101.928 218.82 101.958 218.82 101.99H215.164V101.566H218.516L218.292 101.734C218.292 101.43 218.225 101.16 218.092 100.926C217.964 100.686 217.788 100.499 217.564 100.366C217.34 100.232 217.081 100.166 216.788 100.166C216.5 100.166 216.241 100.232 216.012 100.366C215.782 100.499 215.604 100.686 215.476 100.926C215.348 101.166 215.284 101.44 215.284 101.75V101.838C215.284 102.158 215.353 102.44 215.492 102.686C215.636 102.926 215.833 103.115 216.084 103.254C216.34 103.387 216.63 103.454 216.956 103.454C217.212 103.454 217.449 103.408 217.668 103.318C217.892 103.227 218.084 103.088 218.244 102.902L218.564 103.27C218.377 103.494 218.142 103.664 217.86 103.782C217.582 103.899 217.276 103.958 216.94 103.958Z" fill="#008CFF"/>
<path d="M58 55.6852H117.892C139.379 33.7401 205.215 17.7385 267.849 56.5995" stroke="black"/>
<path d="M267.392 56.5996H364.289" stroke="black"/>
<path d="M335.056 150.323L337.943 145.323L332.169 145.323L335.056 150.323ZM335.056 56.5997L332.169 61.5997L337.943 61.5997L335.056 56.5997ZM335.556 145.823L335.556 61.0997L334.556 61.0997L334.556 145.823L335.556 145.823Z" fill="black"/>
<path d="M284.765 150.78L287.652 145.78L281.878 145.78L284.765 150.78ZM284.765 134.496L281.878 139.496L287.652 139.496L284.765 134.496ZM285.265 146.28L285.265 138.996L284.265 138.996L284.265 146.28L285.265 146.28Z" fill="black"/>
<path d="M284.765 132.667L287.652 127.667L281.878 127.667L284.765 132.667ZM284.765 56.5997L281.878 61.5997L287.652 61.5997L284.765 56.5997ZM285.265 128.167L285.265 61.0997L284.265 61.0997L284.265 128.167L285.265 128.167Z" fill="black"/>
<path d="M203.386 169.982L208.386 167.095L208.386 172.869L203.386 169.982ZM207.886 169.482L220.759 169.482L220.759 170.482L207.886 170.482L207.886 169.482Z" fill="black"/>
<path d="M186.927 169.982L181.927 172.869L181.927 167.095L186.927 169.982ZM182.427 170.482L169.554 170.482L169.554 169.482L182.427 169.482L182.427 170.482Z" fill="black"/>
<path d="M199.728 133.581H296.625" stroke="black"/>
<path d="M63.4862 151.695H354.258" stroke="black"/>
<path d="M117.434 55.6851L188.756 133.864V194.67" stroke="black"/>
<path d="M172.859 113.593L178.632 113.662L175.804 108.628L172.859 113.593ZM212.573 113.593L209.449 108.738L206.806 113.871L212.573 113.593ZM177 111.84C189.901 105.599 202.25 109.294 208.371 111.992L208.774 111.077C202.543 108.33 189.853 104.512 176.565 110.939L177 111.84Z" fill="black"/>
<path d="M163.153 151.695C190.584 176.383 218.016 151.695 218.016 151.695" stroke="black"/>
<path d="M268.306 56.5996L198.357 133.124V196.956" stroke="black"/>
</g>
<defs>
<filter id="filter0_d_95_158" x="0" y="0" width="399" height="220" filterUnits="userSpaceOnUse" color-interpolation-filters="sRGB">
<feFlood flood-opacity="0" result="BackgroundImageFix"/>
<feColorMatrix in="SourceAlpha" type="matrix" values="0 0 0 0 0 0 0 0 0 0 0 0 0 0 0 0 0 0 127 0" result="hardAlpha"/>
<feOffset dy="4"/>
<feGaussianBlur stdDeviation="5"/>
<feComposite in2="hardAlpha" operator="out"/>
<feColorMatrix type="matrix" values="0 0 0 0 0 0 0 0 0 0 0 0 0 0 0 0 0 0 0.25 0"/>
<feBlend mode="normal" in2="BackgroundImageFix" result="effect1_dropShadow_95_158"/>
<feBlend mode="normal" in="SourceGraphic" in2="effect1_dropShadow_95_158" result="shape"/>
</filter>
<clipPath id="clip0_95_158">
<rect width="379" height="200" fill="white" transform="translate(10 6)"/>
</clipPath>
</defs>
</svg>
